<svg version="1.1" id="Layer_1" xmlns="http://www.w3.org/2000/svg" xmlns:xlink="http://www.w3.org/1999/xlink" x="0px" y="0px" width="100%" viewBox="0 0 1024 1024" enable-background="new 0 0 1024 1024" xml:space="preserve" height="1024">
<path fill="#000000" opacity="1.000000" stroke="none" d="
M608.488770,437.517883 
	C613.331665,442.122772 617.825745,446.593262 622.953552,450.345184 
	C628.681335,454.536163 631.145081,454.885803 636.915588,450.682159 
	C643.233643,446.079742 649.265503,441.047791 655.138306,435.880463 
	C662.100708,429.754425 669.466736,424.466644 678.533813,421.945099 
	C679.665283,421.630463 680.824036,421.307373 681.128418,419.413666 
	C670.780029,413.131134 672.189148,402.995911 673.417603,393.024597 
	C673.716064,390.601440 673.059387,388.927216 671.623169,387.130707 
	C668.780151,383.574371 668.247559,379.620239 670.277100,375.439484 
	C672.167664,371.545135 675.150757,369.788696 679.210754,371.818573 
	C683.322998,373.874542 687.497498,373.891144 691.863953,373.475372 
	C697.470581,372.941559 702.094971,374.509583 704.647949,380.039948 
	C704.924316,380.638519 705.226868,381.395569 705.740051,381.687286 
	C709.858704,384.028748 712.226196,387.478271 712.029968,392.242676 
	C711.776733,398.392395 709.689636,403.959808 705.808838,408.789246 
	C705.080933,409.695068 704.126099,410.421906 703.422302,411.343109 
	C699.980713,415.847931 701.320618,420.154755 706.688843,421.747864 
	C720.605408,425.877899 730.562256,435.099457 739.160767,446.342133 
	C755.187256,467.297058 764.403198,490.546387 763.037903,517.215149 
	C762.471008,528.288696 762.015869,539.387207 758.550842,550.239563 
	C756.893250,555.431152 757.631775,561.438049 756.286621,566.978699 
	C755.502014,570.210571 754.036499,572.805420 751.294739,574.748230 
	C746.442932,578.186279 741.591492,576.076538 741.015869,570.115479 
	C740.809509,567.979187 740.982727,565.806274 740.982727,563.165344 
	C735.768494,562.172485 736.665100,558.389343 738.524231,555.013306 
	C740.960999,550.588562 741.486755,546.259399 740.724548,541.284180 
	C738.612915,527.501221 738.762695,513.352112 733.983154,500.010468 
	C732.938599,497.094696 731.571106,494.294617 729.592346,491.685059 
	C729.592346,499.860168 729.215210,508.057709 729.699463,516.204041 
	C730.174927,524.202637 730.411194,532.184021 730.170349,540.176697 
	C730.076050,543.307373 729.291565,546.207642 727.405212,549.039490 
	C724.930664,552.754333 726.039795,557.469360 725.605957,561.711243 
	C724.065979,576.769714 721.955261,591.788513 722.114929,606.995056 
	C722.290588,623.716125 727.829651,639.356079 731.493530,655.373108 
	C734.680176,669.303955 739.304077,682.900024 741.226318,697.127197 
	C741.270630,697.454956 741.378418,697.775696 741.473022,698.094788 
	C744.648254,708.815552 744.647644,708.813904 735.017273,714.427734 
	C733.756226,715.162781 732.510010,715.923340 731.256897,716.672119 
	C731.310120,717.126282 731.363281,717.580505 731.416443,718.034668 
	C743.649475,718.034668 755.882507,718.034668 768.825256,718.034668 
	C766.952515,722.124146 764.330688,721.133728 762.285583,721.134827 
	C711.789551,721.163025 661.293518,721.101868 610.797485,721.101868 
	C495.639282,721.101868 380.481110,721.133240 265.322937,721.090332 
	C262.941040,721.089478 260.013184,722.249939 257.424316,718.051514 
	C272.725555,718.051514 287.100891,718.051514 301.476227,718.051514 
	C301.505371,717.613403 301.534546,717.175293 301.563690,716.737244 
	C300.538757,716.262512 299.510010,715.795898 298.489532,715.311768 
	C289.974823,711.272827 289.433807,710.257507 293.531494,701.706970 
	C294.974487,698.695801 293.650208,695.914978 294.248779,692.964233 
	C298.345917,672.765869 302.811188,652.638123 306.013062,632.258667 
	C308.507324,616.383118 306.688263,600.745544 304.262177,585.105286 
	C302.988007,576.890930 301.455536,568.716858 300.079926,560.517822 
	C299.744812,558.520569 298.779877,557.151489 297.426880,555.528809 
	C293.175323,550.429504 294.094147,543.951233 294.279694,537.900024 
	C294.561371,528.714417 297.325043,519.883728 298.810608,510.863434 
	C300.366394,501.416809 299.926758,491.933044 299.846191,482.450500 
	C299.758484,472.123657 299.402771,461.793488 301.672394,451.604248 
	C304.429993,439.224365 310.633789,429.871704 323.453735,425.997986 
	C327.456238,424.788605 328.115845,421.899658 324.880035,418.987305 
	C319.407166,414.061584 315.915955,408.320801 315.653076,400.841827 
	C315.549744,397.902832 312.995941,398.271790 311.266846,397.688263 
	C304.701447,395.472717 300.848022,389.704956 302.004547,383.620789 
	C303.377899,376.396271 309.153412,372.037262 316.411926,372.685699 
	C319.781982,372.986786 322.789215,374.380188 324.378998,377.206024 
	C326.326294,380.667236 328.521301,380.459198 331.764954,379.480469 
	C336.974487,377.908569 342.321747,378.074097 347.418182,380.236053 
	C354.273193,383.144012 356.866119,388.600128 355.121429,395.828552 
	C354.362976,398.970886 355.477325,402.078186 355.639252,405.207611 
	C356.049622,413.137115 355.861389,420.762482 347.015198,424.071747 
	C346.519653,425.625702 347.154846,426.426453 348.129486,426.820190 
	C358.665771,431.076813 366.627533,439.206909 375.975311,445.245148 
	C379.607483,447.591400 383.260590,449.955048 387.110382,451.903290 
	C393.246643,455.008698 396.972534,454.322449 402.067535,449.597107 
	C408.978607,443.187378 413.548187,434.923553 419.391724,427.675598 
	C423.708679,422.321075 426.821869,416.538788 428.998138,410.043671 
	C430.069702,406.845520 432.047791,403.798981 436.428101,406.778168 
	C438.253052,408.019379 439.380859,405.908691 440.716675,405.134521 
	C443.936981,403.268219 447.285034,400.913269 450.693665,404.221832 
	C454.312256,407.734192 452.533997,411.547333 450.388977,415.138916 
	C450.303650,415.281799 450.231567,415.449615 450.108002,415.550110 
	C440.327576,423.504211 437.711823,435.377869 433.200562,446.244934 
	C429.672333,454.743927 424.952484,462.594574 419.285339,469.861603 
	C408.573792,483.597076 396.772217,487.427124 380.011322,482.544861 
	C376.720947,481.586395 373.476562,480.470032 370.233490,479.433685 
	C368.670990,482.285217 370.429840,483.086029 372.132111,483.874725 
	C376.129547,485.726990 380.437286,486.422272 384.747620,486.633240 
	C396.227631,487.195099 407.725464,486.173248 419.221802,486.938934 
	C422.566742,487.161713 424.634766,483.939301 427.395966,482.479126 
	C432.797211,479.622864 434.045593,480.188843 434.260986,486.162628 
	C436.657379,486.259064 438.777130,485.246490 440.960144,484.503143 
	C443.208282,483.737640 445.600342,482.855469 447.354523,485.196136 
	C449.067291,487.481506 448.452728,489.971161 447.068054,492.225647 
	C443.780273,497.578766 438.814880,500.614838 432.700195,501.007355 
	C427.234802,501.358215 422.443817,502.577576 417.264160,504.828033 
	C404.064545,510.562805 389.821136,512.714355 375.385925,513.123657 
	C373.609161,513.174072 371.707214,512.590576 369.783478,514.130859 
	C370.571991,522.741333 373.668030,531.094543 374.788940,539.801208 
	C375.315796,543.893860 376.169891,547.992676 373.734558,551.927002 
	C372.755280,553.508911 373.337921,555.487793 373.724152,557.300171 
	C378.024384,577.480042 381.968140,597.730469 383.900909,618.293518 
	C384.710388,626.905640 385.093475,635.581421 385.179749,644.233154 
	C385.369110,663.217590 386.291901,682.207764 385.285736,701.187134 
	C385.087067,704.934814 386.302032,707.012756 389.670135,708.537842 
	C394.436646,710.696106 399.899597,711.817383 402.926514,716.904053 
	C403.631561,718.088867 405.395508,717.627563 406.704346,717.627686 
	C477.699432,717.634949 548.694519,717.622314 619.689575,717.655457 
	C622.198730,717.656616 624.003357,717.132080 625.531799,714.825195 
	C627.890381,711.265442 632.199341,710.606445 635.847290,709.108276 
	C640.412292,707.233521 642.703369,705.063171 642.180359,699.169067 
	C640.797913,683.591492 640.616760,667.909607 639.845886,652.274780 
	C638.241394,619.736572 643.403503,587.936401 650.140137,556.296997 
	C651.369080,550.525269 652.064331,544.958618 651.000305,538.795227 
	C649.433594,529.720093 652.734436,520.687683 654.216064,511.677063 
	C656.075195,500.370361 657.379822,489.049255 656.690308,477.178009 
	C651.993591,479.068878 647.768372,480.923035 643.437134,482.482574 
	C633.650391,486.006378 624.214294,485.101318 615.965210,478.685425 
	C601.682739,467.576935 590.596924,453.819885 583.511963,437.040466 
	C582.309143,434.191711 579.687744,432.897125 577.441162,431.343353 
	C573.548401,428.651093 572.074097,425.294525 574.166626,421.094666 
	C575.923645,417.568176 574.758850,415.633118 571.839539,413.738220 
	C570.075623,412.593231 567.923340,411.044891 569.315063,408.499664 
	C570.684326,405.995667 573.079529,406.816711 575.077759,407.720825 
	C581.022461,410.410797 586.372192,414.097534 591.600769,417.956787 
	C592.254272,418.439148 592.981201,419.098572 593.219116,419.824982 
	C595.810608,427.739929 603.426025,431.296448 608.488770,437.517883 
M593.762024,431.444031 
	C592.275879,432.780396 590.819885,434.152283 589.295898,435.443970 
	C587.493347,436.971741 587.161499,438.579559 588.441528,440.683777 
	C596.537231,453.992004 605.442993,466.605347 618.191040,475.986328 
	C625.148560,481.106201 632.804138,482.061646 640.976074,479.710602 
	C644.989258,478.556030 648.760925,476.827759 652.519409,474.998779 
	C656.228638,473.193817 658.091431,470.805573 657.835754,466.447601 
	C657.668579,463.600189 656.932495,460.166748 659.984314,458.058075 
	C661.453735,458.644379 661.521484,459.693909 661.475464,460.680481 
	C660.799805,475.140747 660.766968,489.642883 658.675171,504.012115 
	C657.190796,514.209229 655.765320,524.415100 654.233276,534.604980 
	C653.512817,539.396545 655.692200,541.589050 660.244324,542.498718 
	C679.576233,546.361572 698.948975,549.218933 718.745850,546.713074 
	C725.853149,545.813538 726.544556,545.189819 726.760925,538.109497 
	C727.214600,523.263123 724.575073,508.508972 725.169495,493.709595 
	C725.477417,486.041412 723.657776,480.061646 717.762634,475.222809 
	C716.500977,474.187286 714.776184,473.065552 715.367737,470.922913 
	C717.664368,469.994751 718.710022,471.550140 719.828796,472.671875 
	C730.434509,483.305420 737.935730,495.569244 740.421814,510.677094 
	C741.964233,520.049988 742.737427,529.488831 743.813293,538.905029 
	C744.474182,544.688965 746.368652,545.724365 752.512390,545.760620 
	C757.744446,545.791565 756.879639,541.785767 757.640076,538.805786 
	C757.884216,537.848938 757.810364,536.815735 757.962891,535.830078 
	C762.351562,507.482941 758.796631,480.731995 742.098450,456.606049 
	C733.110046,443.619415 723.657654,431.208374 707.859802,425.697296 
	C704.270630,424.445190 701.618347,424.196075 698.398193,427.045258 
	C692.683960,432.101166 687.295227,431.682617 680.900391,426.474030 
	C679.355591,425.215790 678.063354,425.906769 676.723450,426.346527 
	C671.270508,428.135956 666.462646,431.086700 662.074768,434.754639 
	C655.558533,440.201691 649.197754,445.850861 642.478943,451.035767 
	C632.009644,459.114929 627.620117,459.057556 617.459534,450.374084 
	C611.265625,445.080688 605.676758,439.083130 599.737366,433.485443 
	C598.275391,432.107544 597.077209,429.741821 593.762024,431.444031 
M366.712738,473.325226 
	C367.480042,467.319214 363.603973,462.154633 362.632385,456.268860 
	C365.842987,456.164673 366.237091,458.021790 366.884735,459.448975 
	C368.334961,462.644684 369.706421,465.989441 369.648895,469.495331 
	C369.564148,474.657623 372.257904,476.969147 376.852264,477.945129 
	C378.148254,478.220428 379.379974,478.784668 380.661469,479.143921 
	C396.527832,483.592072 406.572754,480.388062 416.775055,467.476318 
	C424.391327,457.837402 429.424561,446.818207 434.052734,435.515900 
	C436.080872,430.563019 433.879120,428.832581 430.161011,426.653320 
	C426.074738,424.258209 424.106750,426.216370 422.069061,429.272369 
	C417.357269,436.338837 412.731598,443.497040 406.949677,449.748871 
	C398.846924,458.510223 393.028351,459.337311 382.611664,453.539581 
	C375.457001,449.557434 369.114563,444.387695 362.475189,439.649506 
	C357.776031,436.295959 353.405579,432.328888 347.352936,430.748932 
	C344.915924,436.356262 340.654907,435.956238 336.101532,434.086578 
	C334.111664,433.269501 332.088348,432.345947 330.383026,431.066986 
	C327.650604,429.017578 325.018860,429.027283 321.958984,430.210388 
	C312.452850,433.885956 307.845154,441.404572 305.483673,450.743317 
	C302.544250,462.367493 303.144714,474.232147 303.394592,486.033356 
	C303.678070,499.422211 302.647675,512.606140 299.407990,525.641052 
	C297.594696,532.936890 297.379425,540.384033 298.082947,547.933899 
	C298.448212,551.853760 300.343597,553.160095 303.672302,553.504456 
	C324.837006,555.693604 345.873505,555.338074 366.700928,550.428833 
	C370.279999,549.585144 372.099213,547.981812 371.804626,543.927429 
	C371.076599,533.906799 367.656891,524.419922 366.312195,514.529480 
	C365.989563,512.156494 363.681671,511.804291 361.738892,511.271576 
	C355.087921,509.447815 348.942749,506.579468 343.393372,502.445160 
	C334.120911,495.537048 326.039673,487.400696 318.663483,478.539032 
	C317.771027,477.466766 316.382385,476.385498 317.640686,474.604523 
	C320.034943,473.639679 320.796448,475.766296 321.943146,476.985352 
	C326.163055,481.471588 330.146790,486.193115 334.532684,490.507660 
	C347.253357,503.021576 361.908844,511.198120 380.479279,509.621765 
	C391.955597,508.647552 403.156891,506.197388 414.155640,502.743256 
	C417.571838,501.670319 419.076813,500.111786 418.385315,496.254333 
	C417.697998,492.419983 416.973358,489.732086 412.067261,489.955017 
	C403.587158,490.340393 395.077789,490.321655 386.586548,490.161438 
	C375.831635,489.958496 366.447876,486.568390 359.081116,478.184753 
	C352.462006,470.652039 346.521057,462.648560 341.007721,454.305786 
	C340.266418,453.184082 338.983246,451.849304 341.492126,449.819275 
	C349.647949,459.408478 355.180176,471.375580 366.222046,479.582092 
	C366.443176,477.080841 366.572845,475.614471 366.712738,473.325226 
M660.778931,716.211182 
	C661.353882,717.522766 662.532593,717.618164 663.716797,717.618530 
	C678.534241,717.623047 693.351746,717.616882 708.169189,717.608215 
	C709.341309,717.607544 710.720825,717.698425 711.344543,716.569153 
	C713.527954,712.616028 717.531921,710.589783 720.583313,707.565369 
	C723.616577,704.558960 724.656372,701.510254 722.196777,697.365601 
	C718.889832,691.793030 716.068787,685.921692 713.214294,680.092773 
	C704.438843,662.172852 694.810913,644.585022 689.456604,625.221313 
	C685.102905,609.475708 683.327332,593.255676 681.780334,577.027100 
	C681.333862,572.342896 680.737732,567.672913 680.210205,562.996399 
	C679.955505,567.906494 680.344116,572.704590 681.075867,577.449707 
	C682.541443,586.952759 682.439514,596.077026 678.586426,605.288208 
	C675.268555,613.219727 673.326843,621.742615 672.231323,630.368042 
	C669.948669,648.339539 667.299500,666.272522 665.448792,684.287842 
	C664.369812,694.790527 660.265564,704.782532 660.778931,716.211182 
M359.909576,670.302063 
	C356.497620,640.855713 348.529785,607.925903 343.543060,603.312378 
	C342.277924,614.022827 340.821991,624.536987 337.901581,634.800659 
	C331.551880,657.116394 322.571014,678.409302 313.058441,699.504944 
	C312.385437,700.997498 311.298279,702.399109 311.518005,704.166687 
	C311.731232,705.881897 324.806976,717.622559 326.611877,717.628723 
	C339.098053,717.671265 351.584381,717.658630 364.070679,717.654358 
	C365.838593,717.653809 367.542267,717.410583 367.612335,715.124146 
	C367.698853,712.301025 368.397095,709.214539 367.526154,706.692505 
	C363.534332,695.132935 362.656036,682.972290 359.909576,670.302063 
M676.140320,401.469482 
	C676.112732,405.845551 676.355713,410.102112 679.515747,413.643768 
	C683.154175,417.721680 687.955383,413.842804 692.112976,415.065338 
	C691.356873,418.562469 688.588806,419.036041 686.612793,420.368042 
	C684.917847,421.510590 683.939148,423.023773 684.649780,425.011169 
	C685.295654,426.817078 687.031921,427.198883 688.773865,427.209320 
	C694.423828,427.243195 698.319153,423.317749 698.602478,417.565186 
	C698.851562,412.509094 696.696960,406.978394 701.506653,402.734985 
	C702.105713,402.206482 701.987122,400.818787 700.779541,399.869446 
	C698.119019,400.644440 696.039978,400.188202 694.760376,396.935699 
	C692.347290,390.802246 687.795837,388.857269 680.040894,390.543304 
	C674.852234,391.671417 676.898315,396.300140 676.197632,399.566925 
	C676.128967,399.887299 676.168213,400.230804 676.140320,401.469482 
M338.206818,396.626740 
	C333.865204,404.139252 333.865204,404.139252 328.657959,404.644653 
	C327.862610,406.114929 328.007782,407.683044 329.008667,408.839569 
	C331.875824,412.152710 331.402405,415.823151 330.696991,419.672363 
	C329.445831,426.499786 330.605133,428.457581 337.180084,430.940887 
	C339.342834,431.757690 342.052490,432.912903 343.244324,430.041260 
	C344.204468,427.727814 342.818451,425.599945 340.387848,424.409058 
	C338.528473,423.497986 336.379395,422.744659 336.254364,419.888947 
	C338.244232,419.230469 339.991486,419.778870 341.758270,420.074036 
	C347.915680,421.102722 350.611237,419.134766 351.996490,412.995575 
	C352.784485,409.503143 352.523132,406.117645 351.993134,402.634766 
	C350.700134,394.137115 346.430359,391.973511 338.206818,396.626740 
M721.218323,711.723877 
	C720.044556,713.392151 717.468079,713.810547 716.885620,716.146240 
	C718.892639,717.406738 720.733215,716.824036 722.442566,716.421936 
	C727.052185,715.337402 730.906677,712.589905 734.989563,710.366577 
	C741.988159,706.555664 742.226379,705.122925 737.185791,698.228333 
	C732.165894,699.459717 727.289673,700.673340 725.564514,706.705750 
	C725.068848,708.438782 723.063904,709.740173 721.218323,711.723877 
M647.408142,716.885803 
	C649.399536,716.847595 651.394592,716.872498 653.381531,716.757690 
	C657.323059,716.529968 656.954956,713.593872 656.960144,710.916931 
	C656.965027,708.368164 656.547668,706.375610 653.208740,706.339722 
	C649.513733,706.300049 646.093506,706.241882 643.054688,709.084595 
	C639.463257,712.444519 634.089172,712.849915 629.058777,716.321350 
	C635.639954,717.361450 641.056152,716.729065 647.408142,716.885803 
M372.396240,706.807434 
	C369.251312,714.599121 370.630951,716.887390 378.496765,716.924255 
	C381.477905,716.938232 384.467957,717.099854 387.437683,716.922180 
	C390.540253,716.736572 393.825104,717.750366 397.428436,715.764954 
	C393.007172,713.605042 388.607910,712.392090 385.492371,709.695862 
	C381.630646,706.353821 377.696716,705.884277 372.396240,706.807434 
M308.730255,706.648499 
	C307.295288,702.997314 303.717987,702.647644 300.691406,701.574097 
	C297.240356,700.349854 296.628632,703.274536 295.487549,705.429871 
	C294.250427,707.766602 294.548004,709.663635 297.045563,710.726746 
	C301.911041,712.797668 306.779755,714.899414 311.779785,716.598022 
	C313.917114,717.324097 316.452332,717.635559 319.283539,715.932434 
	C315.130188,713.316528 311.530334,710.938416 308.730255,706.648499 
M428.082764,487.303284 
	C428.236389,487.008484 428.418457,486.723755 428.528229,486.413422 
	C428.566742,486.304535 428.427673,486.132812 428.369659,485.989777 
	C426.707458,487.059235 425.060059,488.152496 423.379578,489.192444 
	C420.911469,490.719696 421.070435,493.061035 421.521332,495.399048 
	C422.054199,498.161835 424.397705,497.705994 426.317078,497.798645 
	C431.212311,498.034943 435.996277,497.579956 440.191315,494.725098 
	C442.506836,493.149384 444.668640,491.374146 444.332275,487.611206 
	C440.511871,488.483826 437.037781,489.514954 433.489136,489.995148 
	C431.492615,490.265289 428.627319,491.514221 428.082764,487.303284 
M448.047852,407.583832 
	C443.344788,406.017487 435.869171,411.017059 435.479187,416.085663 
	C435.366577,417.549164 435.988586,419.570160 433.989197,419.727570 
	C431.668121,419.910400 431.908813,417.684723 431.691681,416.074493 
	C431.598236,415.381714 432.159698,414.498657 431.200287,413.972290 
	C428.135620,420.997894 428.626862,422.858521 433.834503,424.675293 
	C435.043793,425.097168 436.173920,425.356110 437.038666,424.328125 
	C441.285248,419.279724 448.389099,416.223633 448.047852,407.583832 
M751.413513,549.237366 
	C746.480957,547.561462 743.825867,549.669250 742.760620,554.753784 
	C747.302734,559.224182 749.278442,564.811890 747.610291,571.543701 
	C750.846130,564.995911 750.846130,564.995911 752.824524,565.950562 
	C753.717712,561.878540 754.915100,557.882568 754.633972,553.655762 
	C754.511780,551.818542 754.599487,549.873352 751.413513,549.237366 
M589.545654,420.611633 
	C588.809204,420.053070 588.342529,418.942749 586.965454,419.441681 
	C591.993225,424.944305 584.634399,427.206696 583.753967,431.036438 
	C585.438171,433.083649 586.997742,432.753174 588.727356,431.534119 
	C593.052246,428.485992 592.355286,424.923859 589.545654,420.611633 
M344.907776,595.394897 
	C345.900696,586.070374 346.893616,576.745850 347.886536,567.421326 
	C346.145813,576.039734 345.216431,584.735535 344.315247,593.434265 
	C344.213440,594.417053 344.209412,595.420593 344.278137,596.406311 
	C344.316528,596.956726 344.594604,596.963623 344.743378,596.446899 
	C344.788910,596.288879 344.803070,596.121765 344.907776,595.394897 
z" class="svg-elem-1"></path>
<path fill="#000000" opacity="1.000000" stroke="none" d="
M399.086182,301.303192 
	C404.164856,293.817413 411.468170,290.857635 419.610626,289.753693 
	C423.839722,289.180328 426.743622,287.813202 429.163300,283.868591 
	C435.577484,273.411926 445.711517,269.899841 457.500488,270.925842 
	C463.306519,271.431122 469.006714,272.848236 474.279663,275.517059 
	C476.437195,276.609039 478.643494,277.000824 481.044861,276.741699 
	C482.694763,276.563660 484.444183,276.320374 486.025299,276.668518 
	C491.975403,277.978546 496.851898,277.005951 501.938416,272.954803 
	C506.787781,269.092560 513.043335,269.802521 518.405762,273.217224 
	C524.797302,277.287262 526.127441,283.764893 525.811401,290.698151 
	C525.605225,295.223083 524.213745,299.576996 522.340271,303.671204 
	C518.454590,312.162964 518.995850,320.292267 522.993469,328.664185 
	C526.082947,335.134247 528.151794,341.946411 526.627258,349.434784 
	C523.924438,362.710205 513.373108,368.908722 500.645325,368.741516 
	C495.848938,368.678528 490.966705,368.047028 486.454193,366.193146 
	C483.921387,365.152588 482.132996,365.746216 480.094971,367.331055 
	C474.224548,371.896118 467.347198,373.477295 460.279663,371.732788 
	C454.882935,370.400696 449.667450,370.135132 444.167572,370.243469 
	C424.466095,370.631378 412.936157,358.494629 414.099365,338.898071 
	C414.249969,336.360779 413.721100,334.869965 411.492401,333.664368 
	C407.951416,331.748840 404.858154,329.175873 402.256073,326.100891 
	C395.973053,318.675934 394.202271,310.580536 399.086182,301.303192 
M506.387421,307.314484 
	C508.046478,314.261963 510.112396,321.079071 512.413452,327.848480 
	C515.811707,337.845703 512.946655,347.497772 505.148315,353.336914 
	C501.105499,356.364044 496.594055,358.396240 491.628021,359.511078 
	C489.900726,359.898804 487.444183,359.528473 486.937195,362.231293 
	C491.727112,364.652802 496.583405,365.433624 503.961182,364.999359 
	C517.483154,364.203491 525.721497,353.559479 523.239990,340.250488 
	C522.436890,335.943115 520.923035,331.913513 519.082214,327.993866 
	C515.248657,319.831207 514.985107,311.672028 518.690796,303.387573 
	C520.602051,299.114655 521.891785,294.623230 522.479736,289.978058 
	C523.237732,283.989319 520.260803,278.048645 515.458252,275.604950 
	C510.811340,273.240448 505.226471,274.022797 501.476410,277.353210 
	C499.483154,279.123383 499.053589,280.614746 501.051086,282.740204 
	C507.463531,289.563354 508.480164,297.687988 506.387421,307.314484 
M469.079529,334.355225 
	C473.749695,337.156647 478.255554,336.105438 480.573242,331.235962 
	C484.465851,323.057617 483.434113,315.204376 478.795532,307.474731 
	C474.892090,300.970001 468.608582,301.540314 462.517761,301.099243 
	C459.449738,300.877075 458.089447,302.364838 457.309052,305.210236 
	C454.420197,315.743256 458.660797,326.818420 469.079529,334.355225 
M434.610077,351.713348 
	C432.902740,342.685760 426.678192,339.118866 417.522156,337.882172 
	C416.983978,346.375977 418.081848,354.042206 424.263031,360.025696 
	C430.169708,365.743347 437.527161,367.275391 446.871185,366.572266 
	C441.090302,362.154877 437.369110,357.771515 434.610077,351.713348 
M402.936859,321.468506 
	C406.137909,325.716827 409.930450,329.194031 415.951782,331.135956 
	C407.504303,316.413361 411.528717,304.272217 423.559479,293.567200 
	C408.472473,292.267365 393.394989,305.450684 402.936859,321.468506 
M440.221466,310.069275 
	C433.395233,323.610229 434.041626,322.905487 443.031311,333.460632 
	C443.994965,334.592163 445.192902,335.520844 446.205750,336.614380 
	C449.531189,340.204803 453.212341,340.317719 457.695099,337.865570 
	C453.079376,327.417389 445.128540,318.853973 443.165741,307.612366 
	C441.445312,307.702423 441.192322,308.836823 440.221466,310.069275 
M482.983917,356.873993 
	C489.847229,355.378723 490.382111,348.971741 493.552185,344.268219 
	C483.870331,341.805359 477.191956,342.689850 468.062988,346.802521 
	C464.184784,348.549652 464.698059,350.362366 467.313416,352.538422 
	C471.596680,356.102264 476.617889,357.385010 482.983917,356.873993 
M440.708160,283.819427 
	C444.985229,282.625763 449.369659,282.720734 453.472809,284.039398 
	C460.798187,286.393585 465.632965,282.193878 471.235992,278.601471 
	C457.427399,270.753784 437.385406,273.467957 431.948608,286.988068 
	C434.733612,285.950409 437.327850,284.983856 440.708160,283.819427 
M439.229858,353.250885 
	C441.593628,357.595734 445.186371,360.790192 449.160217,363.551514 
	C453.183441,366.347137 458.151581,364.708160 460.095123,360.207611 
	C460.906189,358.329468 460.535400,357.127167 458.733826,356.106384 
	C454.988312,353.984100 451.416351,351.537323 447.591187,349.579163 
	C444.191040,347.838531 440.656860,346.147369 435.963074,346.289917 
	C437.114746,348.757294 438.012909,350.681488 439.229858,353.250885 
M486.343475,322.309540 
	C486.112091,324.731720 485.880676,327.153931 485.600037,330.091492 
	C491.057159,327.373413 494.426453,323.079712 497.845123,318.875824 
	C499.059326,317.382721 498.515259,315.785248 497.654724,314.219910 
	C494.249939,308.026672 488.232269,306.495941 481.270447,304.610016 
	C484.547241,310.392670 486.843872,315.524506 486.343475,322.309540 
M433.591522,305.903381 
	C438.867920,302.467285 445.384735,300.387726 447.520752,293.002716 
	C442.481140,291.922089 437.503845,292.322754 432.562286,292.539703 
	C430.618530,292.625092 428.973480,293.919800 428.462860,295.765808 
	C427.312256,299.925781 426.554504,304.169006 429.256378,308.050140 
	C430.984802,308.050568 431.973907,307.108551 433.591522,305.903381 
M508.410400,333.663391 
	C507.265930,335.951111 505.610474,338.054688 503.400177,339.040100 
	C496.279785,342.214386 495.801361,349.651733 491.467285,355.357971 
	C501.957336,354.079529 509.889740,345.954041 510.278259,336.982269 
	C510.368683,334.893677 510.250549,334.612671 508.410400,333.663391 
M424.030426,302.831451 
	C423.669983,301.819336 424.429535,300.492126 423.199341,299.700165 
	C414.451172,307.556152 412.351135,316.331696 417.452789,323.583313 
	C425.907074,312.827484 425.907074,312.827484 424.030426,302.831451 
M421.579773,324.103027 
	C419.542847,329.151611 423.063629,334.175385 430.366974,336.148560 
	C430.673767,329.488647 433.845245,322.586426 427.172028,316.985687 
	C424.521118,318.498413 423.520599,321.224945 421.579773,324.103027 
M461.658630,332.773712 
	C452.874634,324.074799 451.619049,313.416901 454.108276,301.976776 
	C448.215637,301.154816 446.970520,302.177704 447.039154,307.337189 
	C447.072968,309.875366 447.616211,312.314453 448.847931,314.526642 
	C452.969299,321.928894 457.156067,329.294708 461.311005,336.678284 
	C462.740540,339.218658 464.512787,338.896667 466.883362,337.433716 
	C465.118988,335.861450 463.647400,334.550140 461.658630,332.773712 
M499.432037,323.789673 
	C493.790466,329.192902 487.328583,333.575073 480.109253,337.890747 
	C490.166931,342.557556 495.828705,340.161621 498.294067,331.098145 
	C498.902039,328.863068 499.195007,326.542297 499.432037,323.789673 
M475.515869,366.403900 
	C476.658386,365.574097 478.378052,365.373322 478.677307,363.447021 
	C475.454651,360.525085 471.375549,359.880188 467.306580,359.151550 
	C465.837006,358.888367 464.718658,359.039429 463.997833,360.510956 
	C462.685303,363.190399 460.528961,365.231415 458.211212,367.293884 
	C463.645538,369.503815 467.932098,369.301208 475.515869,366.403900 
M502.082916,301.829437 
	C502.406219,302.345703 502.471497,303.123840 503.349335,303.077301 
	C504.681458,293.661285 502.200989,287.190094 495.961456,283.965942 
	C492.931427,285.909180 492.876556,287.985107 495.082184,290.868561 
	C497.583069,294.138031 499.571869,297.799225 502.082916,301.829437 
M489.942841,299.553131 
	C492.851837,301.747040 494.621979,305.384857 499.095734,306.930298 
	C497.709015,299.904541 494.257812,294.984161 490.154724,290.303741 
	C487.877289,291.785889 485.759308,292.468719 484.822327,294.633514 
	C485.718445,296.845886 487.841553,297.695587 489.942841,299.553131 
M472.547516,284.925171 
	C470.742035,285.399597 468.598267,285.160797 467.354248,287.199463 
	C480.943451,292.397095 481.908630,292.418304 485.827087,287.685211 
	C481.735626,284.497192 479.847870,284.056732 472.547516,284.925171 
M502.178619,330.152710 
	C501.876709,332.064941 500.678192,333.816315 501.065521,335.924164 
	C507.453217,331.833893 508.556427,324.483307 503.463287,319.500397 
	C503.063873,322.853546 502.676910,326.102203 502.178619,330.152710 
M476.116150,294.260468 
	C472.639648,292.609711 469.128204,291.153992 464.269897,291.977264 
	C470.234711,296.256195 476.663391,296.797485 482.639465,298.796967 
	C480.682220,297.397400 478.724945,295.997864 476.116150,294.260468 
M437.524445,332.124207 
	C436.572723,331.336395 436.340363,329.760254 434.798889,329.568054 
	C433.463837,338.423431 434.827271,339.950165 442.342987,337.988251 
	C440.853363,336.197784 439.383453,334.431030 437.524445,332.124207 
M440.221466,287.470062 
	C440.090240,287.569153 439.915955,287.643433 439.840363,287.774628 
	C439.770538,287.895752 439.777435,288.209534 439.799896,288.214508 
	C444.011108,289.142853 448.192383,289.224030 453.054901,288.100403 
	C448.548920,285.408691 444.667023,286.862000 440.221466,287.470062 
M433.425537,310.241455 
	C429.577576,314.000580 429.575378,314.027283 433.072906,317.597107 
	C433.716553,314.547211 435.962524,312.189819 436.076660,308.501373 
	C434.996460,309.172516 434.448975,309.512665 433.425537,310.241455 
M490.021210,280.886383 
	C488.011444,280.063385 485.967682,280.187347 483.729279,280.599792 
	C484.770386,282.312042 486.346710,283.185944 487.883850,283.904694 
	C490.087006,284.934814 490.488922,284.454010 490.021210,280.886383 
M459.075439,346.067871 
	C460.343536,345.519562 461.113098,344.475006 460.165009,343.360962 
	C458.436401,341.329620 456.255829,343.138916 454.189911,342.979034 
	C455.424835,344.440765 456.510834,345.899475 459.075439,346.067871 
M442.550507,342.466370 
	C441.954681,342.466370 441.358856,342.466370 440.763031,342.466370 
	C440.727539,342.702118 440.692047,342.937836 440.656555,343.173584 
	C443.514313,344.054657 446.372070,344.935699 450.070282,346.075897 
	C448.035431,342.649231 445.652252,342.413757 442.550507,342.466370 
z" class="svg-elem-2"></path>
<path fill="#000000" opacity="1.000000" stroke="none" d="
M560.083252,346.981964 
	C557.935242,346.972931 556.269836,346.915527 554.607788,346.966370 
	C550.532959,347.091034 548.150452,345.053833 548.092407,341.089966 
	C547.986206,333.837311 544.738403,328.109711 540.433594,322.589172 
	C531.599304,311.259979 528.291016,299.066315 535.449829,285.484985 
	C542.511963,272.087067 559.842957,265.752472 574.165894,271.430145 
	C589.203735,277.391205 596.984436,293.131042 592.481934,308.386993 
	C590.802246,314.078339 587.775146,319.014252 584.118408,323.591492 
	C580.062561,328.668152 577.408264,334.246338 577.239197,340.872223 
	C577.130066,345.146759 574.948792,347.192688 570.548950,346.973969 
	C567.230103,346.808960 563.895142,346.967987 560.083252,346.981964 
M574.881409,306.305664 
	C575.374756,305.441650 575.917114,304.601593 576.352905,303.709442 
	C578.184998,299.958771 577.833496,296.629120 574.316345,294.009216 
	C570.740112,291.345398 567.819458,292.689148 565.149109,295.560272 
	C564.488525,296.270599 563.924683,297.179901 562.663696,297.202545 
	C560.977478,296.805664 560.371460,295.021942 559.068115,294.039734 
	C554.891113,290.892120 549.267578,292.862793 548.225464,297.945160 
	C547.540710,301.284607 548.689331,304.226898 550.702698,306.778320 
	C554.101074,311.084808 558.112061,314.782501 562.618713,318.314728 
	C567.288269,315.099976 571.046265,311.181396 574.881409,306.305664 
z" class="svg-elem-3"></path>
<path fill="#000000" opacity="1.000000" stroke="none" d="
M611.235046,317.057739 
	C610.985107,326.861084 607.497009,334.694458 600.035522,340.477203 
	C597.920837,342.116119 597.231079,343.723724 597.654602,346.410400 
	C600.929565,367.187317 584.780579,383.719238 564.042725,381.053864 
	C559.211365,380.432922 554.545837,377.354218 550.138123,377.776337 
	C545.537903,378.216888 544.075562,384.662109 540.017395,387.396271 
	C527.895874,395.563171 515.414429,395.801270 502.701324,389.306976 
	C499.591309,387.718231 498.113831,387.877289 495.783539,390.684937 
	C485.880798,402.616425 468.705078,404.392700 455.802948,394.833038 
	C452.442749,392.343353 450.381165,391.686951 446.531647,394.427948 
	C438.786316,399.942871 429.911713,400.871857 420.813477,397.671753 
	C419.201385,397.104767 417.121338,396.834198 417.090546,394.399689 
	C418.311371,392.972351 419.567230,393.774994 420.769775,394.195038 
	C430.522980,397.601471 439.544739,396.346283 447.375305,389.490784 
	C450.249878,386.974091 452.130005,387.121613 454.960632,389.566193 
	C468.869354,401.578003 484.210297,400.006653 495.118073,385.490784 
	C497.086090,382.871796 498.611267,382.744904 501.283264,384.360870 
	C518.784973,394.945526 534.512451,391.630676 545.707214,374.894775 
	C547.737244,371.860016 549.580994,372.645599 551.982544,373.810791 
	C559.245667,377.334656 566.744934,378.512543 574.770630,376.662567 
	C588.258850,373.553406 597.156067,360.378418 594.140625,346.859009 
	C593.204163,342.660522 593.972351,340.340973 597.544678,337.759521 
	C609.988281,328.767670 611.282715,311.182922 600.448303,300.089905 
	C597.872620,297.452728 597.067139,295.128906 597.465210,291.360107 
	C599.961182,267.726624 575.215271,251.081161 552.724304,261.485504 
	C547.259949,264.013306 544.469788,263.664673 540.267700,259.161102 
	C525.569031,243.407852 501.331116,244.430618 487.396088,260.905487 
	C485.160461,263.548553 483.696747,264.411102 480.622437,261.733215 
	C464.759766,247.915863 444.836151,251.063080 433.982574,269.253082 
	C431.661743,273.142639 429.699707,273.685364 425.699768,272.300079 
	C414.297852,268.351349 403.799652,270.673035 395.173676,278.917084 
	C386.457947,287.246826 385.186157,297.754425 388.749817,308.907501 
	C389.678589,311.814270 389.049530,313.448242 386.711945,315.251099 
	C378.651825,321.467468 374.770538,329.493561 377.392700,339.755463 
	C379.852264,349.380951 386.309723,355.223755 395.826569,357.433380 
	C399.142303,358.203217 400.148834,359.741852 399.173065,362.608917 
	C397.785522,366.686096 398.873810,371.010590 398.203705,375.896851 
	C394.094849,372.995087 394.677429,369.404877 395.161713,366.459045 
	C395.795319,362.604645 394.840271,360.900940 391.075500,359.548462 
	C370.947418,352.317596 366.964722,325.307587 383.308441,313.574066 
	C385.160675,312.244293 385.747437,310.878601 385.071716,308.501709 
	C377.100067,280.460907 401.581390,262.653534 424.195129,267.992493 
	C428.172943,268.931641 430.123596,268.065979 432.414825,264.893097 
	C444.600250,248.018570 463.614441,244.834610 480.512268,256.780365 
	C483.108551,258.615814 484.570679,258.432831 486.845459,256.339203 
	C504.546600,240.047394 526.962646,240.468063 543.845093,257.488678 
	C546.144104,259.806519 547.930847,259.572845 550.406616,258.471985 
	C557.716797,255.221436 565.252380,253.802078 573.277954,255.418442 
	C590.654846,258.918213 601.567932,272.139862 601.141052,289.833832 
	C601.050598,293.581726 601.807129,296.463928 604.431824,299.271576 
	C608.916748,304.069153 610.786011,310.112152 611.235046,317.057739 
z" class="svg-elem-4"></path>
<path fill="#000000" opacity="1.000000" stroke="none" d="
M392.235901,383.604675 
	C397.078613,376.908630 403.136108,375.100739 409.237122,378.241302 
	C414.445312,380.922272 417.214203,387.150604 415.593079,392.538483 
	C413.514923,399.445312 406.697235,403.052917 399.819946,400.884918 
	C393.028168,398.743866 389.771515,391.641388 392.235901,383.604675 
M395.505646,392.893524 
	C399.102905,397.898865 403.818542,399.330444 408.218903,396.753113 
	C412.079895,394.491608 413.596252,389.563202 411.661469,385.563995 
	C409.447723,380.988129 404.514221,378.929535 400.014984,380.704224 
	C395.582123,382.452789 393.764313,386.813110 395.505646,392.893524 
z" class="svg-elem-5"></path>
<path fill="#000000" opacity="1.000000" stroke="none" d="
M558.109985,354.756470 
	C562.578857,354.779114 566.566650,354.754608 570.551941,354.842773 
	C572.314941,354.881744 574.558777,354.472473 575.165466,356.781189 
	C575.776184,359.104980 573.688110,359.536621 572.130920,360.558411 
	C569.037354,362.588287 566.813843,365.647797 562.307312,365.447754 
	C556.929565,365.208984 553.850891,361.243958 549.913635,358.810486 
	C547.933533,357.586700 549.579041,355.399139 551.674866,354.990662 
	C553.601318,354.615173 555.639099,354.811005 558.109985,354.756470 
z" class="svg-elem-6"></path>
<path fill="#000000" opacity="1.000000" stroke="none" d="
M600.178894,376.004456 
	C600.861511,371.023804 602.691223,367.215393 607.623779,366.057465 
	C612.123352,365.001282 616.239502,365.786896 619.364746,369.581604 
	C623.420532,374.506348 622.695007,381.171204 617.682800,385.051300 
	C612.853149,388.790039 605.866943,387.608368 602.271057,382.464294 
	C600.991455,380.633698 600.422607,378.575928 600.178894,376.004456 
M614.286072,382.969147 
	C615.138855,382.191162 616.129822,381.518860 616.819885,380.616486 
	C619.434265,377.197662 618.827026,373.055237 615.451721,370.594757 
	C612.346069,368.330841 607.770996,368.773712 605.560852,371.552277 
	C603.157288,374.574036 603.640625,379.352020 606.656189,381.878387 
	C608.703491,383.593506 611.038757,384.130280 614.286072,382.969147 
z" class="svg-elem-7"></path>
<path fill="#000000" opacity="1.000000" stroke="none" d="
M570.694702,353.309448 
	C564.763672,353.337036 559.298096,353.394135 553.832886,353.367157 
	C551.886292,353.357544 549.256531,353.635193 549.106079,350.996521 
	C548.928589,347.883850 551.906372,348.151611 553.880493,348.106964 
	C559.672485,347.976105 565.474060,348.033539 571.264893,348.226501 
	C573.091736,348.287323 575.889771,348.025818 575.806946,350.803711 
	C575.728394,353.435303 573.122620,353.183258 570.694702,353.309448 
z" class="svg-elem-8"></path>
<path fill="#000000" opacity="1.000000" stroke="none" d="
M390.851074,412.900330 
	C384.988007,415.857178 380.135193,414.425873 378.212921,409.507294 
	C376.529266,405.199280 378.596985,400.511200 382.894409,398.893036 
	C387.553528,397.138672 392.455536,399.702271 393.835663,404.607300 
	C394.763123,407.903534 393.328003,410.401550 390.851074,412.900330 
M389.798309,403.776520 
	C388.119110,401.998352 386.290619,400.653656 383.774811,402.182251 
	C381.517944,403.553558 380.672943,405.693420 381.537994,408.110443 
	C382.411713,410.551514 384.416656,411.799377 387.019745,410.938477 
	C390.177856,409.894012 391.373657,407.641663 389.798309,403.776520 
z" class="svg-elem-9"></path>
<path fill="#000000" opacity="1.000000" stroke="none" d="
M622.740601,389.956299 
	C624.009705,384.001404 627.579468,381.032715 631.967468,382.122101 
	C635.950928,383.111115 638.466064,385.634888 638.260986,389.946381 
	C638.061035,394.148499 635.706116,396.720917 631.459473,397.246338 
	C626.906006,397.809723 624.363342,395.740875 622.740601,389.956299 
M629.104675,393.510040 
	C631.714355,394.111755 633.785950,393.527405 634.547241,390.701141 
	C635.145142,388.481781 634.260803,386.779266 632.163391,385.833405 
	C630.217712,384.956055 628.544067,385.564514 627.352417,387.209076 
	C625.683044,389.512970 626.157288,391.547424 629.104675,393.510040 
z" class="svg-elem-10"></path>
</svg>