<svg version="1.1" id="Layer_1" xmlns="http://www.w3.org/2000/svg" xmlns:xlink="http://www.w3.org/1999/xlink" x="0px" y="0px" width="100%" viewBox="0 0 1024 1024" enable-background="new 0 0 1024 1024" xml:space="preserve" height="1024">
<path fill="#000000" opacity="1.000000" stroke="none" d="
M383.670349,667.525513 
	C382.364624,679.720703 381.287415,691.481750 379.814972,703.193176 
	C379.480438,705.853760 380.580963,706.791443 382.411591,707.832458 
	C387.375854,710.655334 393.572968,711.462097 396.956665,716.965149 
	C397.399109,717.684692 399.434784,717.593567 400.732574,717.593933 
	C472.388275,717.613281 544.044006,717.594299 615.699707,717.626648 
	C618.231323,717.627808 619.958313,717.061890 621.441956,714.700073 
	C623.524048,711.385742 627.601990,710.984070 630.916870,709.538757 
	C638.251770,706.340637 638.289673,706.191650 637.530945,698.617798 
	C635.173889,675.088257 633.519348,651.483337 633.099792,627.861145 
	C632.714050,606.139832 637.528503,584.930359 642.025940,563.776855 
	C643.097595,558.736267 644.274170,553.718140 645.355164,548.679504 
	C645.562317,547.713928 645.944153,546.511963 645.575378,545.738586 
	C641.194946,536.552673 645.209839,527.731995 646.969238,518.972290 
	C649.468628,506.527740 650.788269,493.993988 651.585693,481.373383 
	C651.697632,479.601013 652.088684,477.713898 651.090759,476.043396 
	C649.636841,475.152161 648.469421,476.119293 647.284912,476.567383 
	C642.296753,478.454468 637.254272,480.115204 632.041504,481.314117 
	C620.887451,483.879517 611.248596,480.788055 602.820984,473.521362 
	C591.442993,463.710663 582.712769,451.747833 575.816406,438.502838 
	C574.301880,435.594116 572.435425,433.668976 569.717712,432.323547 
	C565.078796,430.027130 563.443298,426.460999 565.332275,421.638397 
	C566.510193,418.631042 565.952881,416.716156 563.068970,415.109222 
	C561.048645,413.983490 558.815308,412.191772 560.264465,409.517426 
	C561.907043,406.486023 564.740906,407.757477 566.843384,408.977295 
	C574.180542,413.234314 583.251770,415.429993 586.426025,424.841034 
	C596.935425,432.240784 604.281372,443.251038 615.317993,450.073364 
	C619.918640,452.917267 624.396606,452.775726 629.062256,450.460388 
	C636.256348,446.890320 642.938721,442.503510 649.270447,437.602997 
	C656.682129,431.866669 664.230835,426.430420 673.406677,423.803894 
	C674.385925,423.523529 675.329163,423.165741 675.527893,421.424103 
	C665.765320,415.800049 666.997559,406.233551 667.824036,396.934814 
	C668.104248,393.782166 668.041077,391.359009 665.435669,388.938934 
	C663.031311,386.705658 662.388306,382.746857 665.781372,381.270538 
	C673.805359,377.779327 681.957886,373.927795 691.162476,375.198456 
	C700.496216,376.486969 704.802856,382.983002 706.673889,391.314850 
	C708.560364,399.715302 706.525208,407.233765 699.699585,412.912109 
	C697.833557,414.464478 696.262939,415.737274 696.205383,418.491333 
	C696.140320,421.602020 696.947937,423.233429 700.252930,424.162292 
	C711.751770,427.394073 720.088562,434.605530 725.698547,445.173981 
	C734.322388,461.420166 738.446533,479.080261 742.102295,496.866364 
	C745.386108,512.842773 747.888367,528.990906 748.290344,545.300781 
	C748.511230,554.263672 752.038818,562.897217 750.377747,571.983887 
	C749.572083,576.391113 746.909546,579.434143 742.977600,580.477844 
	C740.215332,581.211060 737.456787,579.100891 736.448059,576.178345 
	C735.705688,574.027588 735.711365,571.618652 735.339111,569.012268 
	C729.310303,568.887390 729.689331,564.578430 731.037109,560.954102 
	C733.007202,555.656250 732.069824,551.154602 729.944214,546.198486 
	C727.461182,540.408813 725.860779,534.240540 723.612732,528.209045 
	C723.393921,534.629883 724.529297,541.517029 722.042053,547.333313 
	C715.840454,561.835144 717.319580,577.262390 715.419250,592.248840 
	C712.868835,612.361938 717.486145,631.601562 723.878845,650.556519 
	C728.291931,663.641968 732.289673,676.871460 736.251770,690.102844 
	C737.711426,694.977600 737.801147,700.190247 740.161255,704.902954 
	C741.524048,707.624146 739.655884,709.744873 737.403992,711.135254 
	C734.173950,713.129578 730.803772,714.896912 727.556091,717.741089 
	C741.037903,717.741089 754.519775,717.741089 768.291138,717.741089 
	C767.703369,721.950012 765.034058,721.024719 763.192566,721.035828 
	C748.695557,721.123291 734.197815,721.085327 719.700256,721.085754 
	C568.057739,721.089905 416.415222,721.098450 264.772705,721.054138 
	C262.634094,721.053528 260.046143,722.083130 257.734467,718.341980 
	C269.704163,716.671326 281.208893,718.494873 293.382935,717.165161 
	C289.790466,715.023315 286.845428,713.320923 283.955231,711.530151 
	C280.648132,709.481079 280.149048,706.865295 281.208099,703.000000 
	C288.450104,676.569031 298.144073,650.784363 303.164337,623.790344 
	C305.389191,611.827148 303.745544,599.548462 302.330597,587.448059 
	C301.345520,579.024048 300.559723,570.576904 299.612518,562.148254 
	C299.209808,558.565002 298.938477,555.088440 296.815765,551.754700 
	C294.710663,548.448730 295.567413,544.255981 296.142731,540.497375 
	C298.969299,522.031677 300.945740,503.572845 298.968323,484.829987 
	C298.113464,476.727356 298.558624,468.514740 299.776825,460.409668 
	C301.055206,451.904602 303.511200,443.859406 309.944275,436.835083 
	C302.251312,431.275726 303.673218,425.131042 308.401093,418.601685 
	C311.072632,414.912201 310.606445,410.385895 310.850891,406.053619 
	C311.471405,395.055420 315.198334,385.836975 326.268158,381.340912 
	C342.245636,374.851593 357.661224,383.734314 359.599609,400.716217 
	C360.554565,409.082306 359.893341,417.531036 363.890961,425.563232 
	C366.329559,430.462921 362.317657,433.826691 357.551208,436.037109 
	C362.834473,441.086792 367.727234,445.763245 372.613159,450.433136 
	C377.312622,448.576935 379.854645,445.549896 379.857574,440.570740 
	C379.858215,439.443665 380.331848,438.291565 380.712677,437.194336 
	C382.549042,431.903503 384.881897,431.461426 388.676453,435.758545 
	C390.952332,434.815186 391.715485,432.366241 393.414612,430.843445 
	C395.441345,429.027008 397.358734,427.028961 400.407776,428.568970 
	C403.279999,430.019714 404.398804,432.597870 404.179260,435.611633 
	C403.795898,440.874756 401.394714,445.535187 397.259064,448.450073 
	C389.924225,453.619781 390.826813,462.382782 386.270752,469.131226 
	C390.467682,470.017517 391.988708,467.467194 393.456818,465.502441 
	C397.841278,459.634888 401.903992,453.528168 406.215393,447.604340 
	C410.597473,441.583374 414.842468,435.635529 416.997314,428.244354 
	C418.596863,422.757965 421.067352,422.536285 425.028992,426.441589 
	C426.579102,425.207764 428.130798,423.959595 429.696686,422.729553 
	C431.677948,421.173157 433.846405,420.540375 436.202240,421.761292 
	C438.343109,422.870789 438.881592,424.856049 439.224854,427.136169 
	C440.281769,434.156555 435.402252,437.827942 431.009552,441.537994 
	C428.705322,443.484070 427.493408,445.457428 426.689209,448.361725 
	C422.983948,461.742554 417.964111,474.573547 409.820953,486.014862 
	C400.381714,499.277100 389.433563,502.257935 374.717285,495.350891 
	C369.960632,493.118347 368.348541,494.202728 368.063690,499.689117 
	C367.519592,510.167999 370.439545,520.132202 372.545746,530.214050 
	C374.001617,537.182922 376.131866,544.062256 373.481567,551.266113 
	C373.036194,552.476624 373.772095,554.184143 374.132660,555.619263 
	C378.834290,574.330688 383.234131,593.105347 385.632233,612.280029 
	C387.422974,626.597961 385.919067,640.873352 384.838104,655.146423 
	C384.536682,659.126587 384.119690,663.098022 383.670349,667.525513 
M342.616486,588.676147 
	C340.303802,605.466064 338.651855,622.404480 332.245056,638.327087 
	C323.714691,659.527100 312.804474,679.567871 302.039124,699.670044 
	C300.921326,701.757202 300.139618,703.422546 301.616608,705.589722 
	C304.622742,710.000610 310.143433,712.014282 312.495758,717.078918 
	C312.702362,717.523743 314.016113,717.600403 314.816132,717.601990 
	C329.137238,717.630554 343.458466,717.612427 357.779633,717.628296 
	C360.119141,717.630920 361.098297,716.952820 361.444946,714.223328 
	C362.094238,709.110718 360.361359,704.407593 360.000244,699.525024 
	C358.920746,684.929260 358.231384,670.296936 357.741089,655.667175 
	C357.065704,635.515625 353.856354,615.976624 345.116699,597.599976 
	C343.685333,594.590332 342.385529,591.499573 343.368896,587.315613 
	C344.072754,581.330566 345.771698,575.449829 344.828217,569.287659 
	C344.206787,575.513367 343.585358,581.739014 342.616486,588.676147 
M597.770874,439.730896 
	C595.180115,437.139648 592.471619,434.653839 590.031860,431.927429 
	C587.608215,429.218964 585.611389,429.836914 583.369507,432.093994 
	C581.186707,434.291687 577.279236,435.390839 580.107117,439.949768 
	C586.632202,450.468842 593.777100,460.475464 602.893677,468.910645 
	C607.701233,473.358826 613.061035,477.014771 619.741272,478.135742 
	C629.780090,479.820312 638.701111,475.982269 647.734131,472.550873 
	C650.603516,471.460846 651.966309,469.811829 651.982727,466.656311 
	C651.995544,464.179535 651.687744,461.383453 654.048706,459.368713 
	C655.929993,462.042755 655.875671,462.040833 655.812805,463.829193 
	C655.046265,485.621307 653.239258,507.225220 648.604919,528.663757 
	C645.564148,542.729980 645.332031,540.974609 658.958069,544.220459 
	C676.400635,548.375366 694.103516,549.652466 711.989380,548.663452 
	C715.486328,548.470093 719.185974,548.049500 719.363342,543.680237 
	C719.854187,531.582886 721.249756,519.366943 716.663940,507.636078 
	C712.906555,498.024384 709.118042,488.424896 705.369568,478.809753 
	C704.805298,477.362335 703.532837,475.863159 705.360046,474.275665 
	C707.929504,474.559174 708.214966,476.893372 708.880310,478.561615 
	C713.134277,489.227386 717.162598,499.983002 721.393494,510.658203 
	C725.752808,521.657593 729.056763,533.008057 732.765137,544.223633 
	C733.980286,547.898804 735.434387,550.317871 740.208496,549.402039 
	C744.851257,548.511536 745.159119,545.825623 744.779480,542.183960 
	C744.365967,538.216553 744.151184,534.227173 743.683228,530.267029 
	C740.886902,506.601898 736.825012,483.188721 728.762573,460.667725 
	C725.153015,450.584930 720.961060,440.596405 712.005859,433.972565 
	C705.423096,429.103546 698.495728,423.401337 689.921753,430.881592 
	C689.103943,431.595093 687.792480,431.823608 686.665833,432.087982 
	C682.466431,433.073486 678.343140,433.772888 675.889832,428.819977 
	C674.807251,426.634308 673.076599,427.713898 671.548035,428.208038 
	C665.590332,430.133972 660.577942,433.703735 655.570923,437.322693 
	C646.816406,443.650330 638.470337,450.604492 628.253845,454.678101 
	C622.964539,456.787048 618.215759,456.065247 613.562256,453.042847 
	C607.938232,449.390137 603.035645,444.898315 597.770874,439.730896 
M331.942291,456.071228 
	C335.857941,462.252075 339.713776,468.472198 343.730530,474.586609 
	C344.755890,476.147400 346.083038,478.634430 348.407684,476.998505 
	C353.981354,473.076233 359.382385,468.730713 362.146057,462.303711 
	C362.936157,460.466278 363.102478,459.693054 365.266510,458.987183 
	C367.721832,458.186310 371.749451,455.574829 369.247681,452.572083 
	C362.997772,445.070557 355.811829,438.355347 346.737000,434.287323 
	C342.399780,439.397247 340.230408,439.928253 334.373322,437.279785 
	C332.571686,436.465149 330.721313,435.494659 329.300293,434.161621 
	C326.961914,431.968079 324.674072,432.145721 321.965424,433.215912 
	C312.036499,437.138855 306.977356,444.950928 304.488007,454.832001 
	C301.516754,466.626038 301.963501,478.604065 302.764954,490.581299 
	C303.354736,499.394684 303.733459,508.189514 302.612427,516.996765 
	C301.437225,526.229248 300.471985,535.488831 299.259216,544.716064 
	C298.661896,549.260498 300.754089,551.121399 304.987762,551.390991 
	C309.139587,551.655334 313.283264,552.047852 317.434784,552.318054 
	C334.312531,553.416565 351.023895,552.243774 367.535950,548.523865 
	C369.986206,547.971924 371.734436,546.981750 371.439331,543.802795 
	C370.118530,529.573303 364.444580,516.151550 364.350586,500.999847 
	C362.521149,502.297485 361.459961,503.049164 360.399780,503.802277 
	C348.820404,512.028015 339.021027,511.714783 328.138458,502.581848 
	C320.134399,495.864624 314.217834,487.384674 308.542389,478.731445 
	C307.879272,477.720428 307.405212,476.639923 308.733704,475.603119 
	C311.328583,475.384125 311.768860,477.757782 312.826538,479.273071 
	C318.175720,486.936676 323.639587,494.540588 330.950287,500.466827 
	C340.369507,508.102203 349.817810,508.039703 359.007507,500.170563 
	C371.835449,489.186035 379.648895,474.657288 386.784180,459.709656 
	C388.817932,455.449188 385.229584,454.247009 382.828033,452.394531 
	C380.319916,450.459839 378.099701,450.410126 375.933289,453.066162 
	C372.883270,456.805450 369.651306,460.396088 366.506531,464.058319 
	C361.731995,469.618378 357.095764,475.319183 351.104248,479.671509 
	C348.206024,481.776764 345.275452,482.369659 342.795441,479.088501 
	C338.067535,472.833313 333.890869,466.210876 330.179565,459.307953 
	C329.460388,457.970337 328.238190,456.030121 331.942291,456.071228 
M663.948486,634.270447 
	C663.792542,635.088257 663.565674,635.899719 663.491211,636.724854 
	C661.772400,655.774353 659.723450,674.804260 658.557190,693.887878 
	C658.160706,700.376709 655.729004,706.486816 656.156616,713.078918 
	C656.380249,716.527222 657.367676,717.711304 660.832764,717.675903 
	C675.325256,717.527771 689.820007,717.602417 704.313965,717.586548 
	C705.804260,717.584961 707.666016,717.857056 708.331604,716.249695 
	C709.921021,712.411621 713.530945,710.717346 716.351074,708.211365 
	C719.849976,705.102173 720.452332,702.167175 718.005798,697.764587 
	C710.809082,684.814026 703.480408,671.921143 697.166382,658.492554 
	C689.292419,641.746033 681.929077,624.916504 679.214539,606.311401 
	C677.320923,593.333374 675.576660,580.319092 673.323914,567.380310 
	C673.253296,570.054932 673.226074,572.750916 673.798218,575.313049 
	C676.028687,585.300415 675.672791,594.850281 671.489441,604.487610 
	C667.518799,613.634705 664.910217,623.331238 663.948486,634.270447 
M345.592041,427.858490 
	C345.835358,432.070343 349.570496,431.847565 352.152069,432.632690 
	C355.051331,433.514374 357.767273,432.219452 359.743896,429.937988 
	C361.600677,427.794922 360.558014,425.561707 359.528503,423.409210 
	C358.010254,420.234894 356.853882,416.977448 356.682983,413.395813 
	C356.445068,408.408875 356.160706,403.419373 355.700470,398.449127 
	C355.232117,393.391235 353.203430,389.068970 348.604156,386.481873 
	C337.652344,380.321442 318.956512,381.193817 315.255829,400.598114 
	C313.623108,409.159210 314.467255,418.227386 308.698029,425.791138 
	C307.150818,427.819580 308.540466,430.265442 310.282166,432.077301 
	C312.195221,434.067444 314.118622,433.412903 316.137054,432.217743 
	C317.422150,431.456818 318.785004,430.798737 320.172943,430.244720 
	C326.954590,427.537567 328.036530,425.528015 326.805481,418.429749 
	C326.434723,416.292023 324.824707,415.008453 323.933044,413.250397 
	C321.428650,408.312561 323.690948,404.538330 329.158661,404.549683 
	C337.180542,404.566345 342.894226,400.732483 346.152069,393.168030 
	C346.599121,392.129974 346.778992,390.858002 348.185242,390.555511 
	C358.466400,398.734161 357.200073,419.113892 345.592041,427.858490 
M423.213928,447.763336 
	C418.049225,441.381348 414.335815,441.507538 410.028534,448.062531 
	C405.370758,455.150879 400.634033,462.188080 395.294891,468.797272 
	C392.993774,471.645844 390.441162,473.919495 386.417267,473.079742 
	C384.857697,472.754272 383.900146,473.336761 383.116547,474.618011 
	C379.932831,479.823761 376.712158,485.006927 373.410675,490.351318 
	C374.518951,491.164001 375.250610,491.842896 376.100830,492.302582 
	C387.816742,498.637054 397.882111,496.094177 406.485046,484.484192 
	C414.522064,473.637939 419.428894,461.309235 423.213928,447.763336 
M672.722839,393.132965 
	C670.084412,398.294861 670.889465,403.817383 671.292725,409.210358 
	C671.761780,415.482758 675.603577,418.287079 681.746521,417.391449 
	C683.277344,417.168274 684.948364,416.063324 686.242249,418.079193 
	C686.104614,421.194336 683.248535,421.206360 681.360840,422.212982 
	C679.341858,423.289581 679.213074,425.002747 679.409607,426.882080 
	C679.576111,428.473816 680.775635,429.068909 682.155334,429.324707 
	C687.225098,430.264709 692.708984,425.646454 692.866028,420.409515 
	C693.025024,415.110077 691.327881,409.499359 695.583496,404.851013 
	C696.170410,404.209930 695.864807,402.912872 694.873474,402.235199 
	C690.233704,402.154419 690.173157,402.176514 688.452576,397.462921 
	C687.220459,394.087555 684.854553,392.312164 681.349792,392.261383 
	C678.710510,392.223114 676.066101,392.538849 672.722839,393.132965 
M350.112701,399.162140 
	C349.426819,396.981415 348.634888,396.866333 347.302979,398.819519 
	C343.074554,405.020569 337.184631,408.275238 329.633514,408.332489 
	C327.159576,408.351257 325.636719,409.780640 327.299805,411.637146 
	C331.300293,416.102966 330.436554,421.318329 330.200745,426.336517 
	C329.996643,430.679199 332.016876,432.863800 335.649963,434.135498 
	C337.641205,434.832520 340.127625,436.016357 341.429382,433.489624 
	C342.703552,431.016357 341.970551,428.668427 339.128632,427.302856 
	C337.285461,426.417145 335.061462,425.652924 335.401672,423.017517 
	C336.699127,421.773438 337.836517,422.492737 338.913666,422.739044 
	C346.297516,424.427490 349.230377,422.581421 351.091705,415.114685 
	C352.384827,409.927460 351.484100,404.866852 350.112701,399.162140 
M634.607910,716.943359 
	C639.080627,716.933655 643.556152,716.822144 648.025208,716.945251 
	C651.834717,717.050232 652.810913,715.101013 652.749146,711.671753 
	C652.691833,708.492920 652.404785,706.210754 648.270264,706.290344 
	C644.730591,706.358459 641.527283,706.323181 638.765381,709.201233 
	C636.705444,711.347717 633.587646,712.052002 630.887329,713.307922 
	C629.268005,714.061035 627.038757,714.054016 626.024658,716.259644 
	C628.729553,717.447144 631.234741,716.717285 634.607910,716.943359 
M722.465210,715.038086 
	C726.460144,712.986450 730.511292,711.035095 734.428162,708.843933 
	C736.616455,707.619629 737.283142,705.568970 735.947144,703.297913 
	C734.935364,701.578064 734.785095,698.169006 732.061829,698.988403 
	C728.649353,700.015259 724.482727,700.261597 722.894836,704.843262 
	C721.688538,708.323975 719.018005,710.988159 716.020935,713.238647 
	C714.943420,714.047791 713.211914,714.541199 713.544067,716.498474 
	C717.445557,716.894958 717.445557,716.894958 722.465210,715.038086 
M287.997986,699.443481 
	C282.730774,704.990417 282.921082,706.971680 289.300476,710.652954 
	C292.590698,712.551636 295.949493,714.360046 299.399048,715.944214 
	C301.827606,717.059448 304.462372,718.193909 307.445618,716.066589 
	C304.191986,712.576050 299.755585,710.554626 298.086334,706.285583 
	C296.347198,701.837769 292.972198,700.116760 287.997986,699.443481 
M366.436829,716.181702 
	C374.536011,717.497864 382.609436,717.107849 391.980011,716.503052 
	C386.553162,712.715149 381.016296,712.124695 377.312286,708.324341 
	C374.096161,705.024536 369.734344,705.399841 366.673828,706.981812 
	C363.869232,708.431335 364.813049,712.530029 366.436829,716.181702 
M399.917511,438.424988 
	C400.642792,436.183929 401.656433,433.547089 398.970184,432.252838 
	C396.677673,431.148346 395.689972,433.848785 394.361877,435.178284 
	C392.605408,436.936737 390.963867,438.809357 389.238129,440.599365 
	C386.796021,443.132446 384.785309,443.638702 383.997314,438.622162 
	C383.483368,440.966156 383.533936,442.686737 383.007172,444.207336 
	C381.964172,447.218323 383.446472,448.773712 385.675446,450.358887 
	C388.296692,452.222992 389.992279,450.634003 391.790405,449.147217 
	C395.137604,446.379639 398.264252,443.425262 399.917511,438.424988 
M742.384766,573.345825 
	C742.511780,573.907043 742.107910,574.650208 742.996643,575.007935 
	C744.601257,572.811523 742.517944,569.747864 744.579468,567.671509 
	C746.687195,567.575989 745.689026,569.806274 746.844727,570.411438 
	C746.777222,565.568787 747.211487,560.787292 745.915405,556.013733 
	C744.982788,552.578979 743.147339,552.008301 740.023560,552.670349 
	C734.624329,553.814575 735.876648,558.669067 734.121094,562.130920 
	C738.338806,561.406311 742.182678,566.575623 742.384766,573.345825 
M418.989868,440.462372 
	C424.393982,444.511139 427.320007,439.866211 431.058472,437.183044 
	C429.452393,434.538116 428.275909,431.836761 425.592651,430.853607 
	C422.446655,431.396606 424.178345,435.122406 421.497955,435.831024 
	C418.436646,434.557281 420.413147,431.727142 419.674072,428.290649 
	C419.060120,433.125458 416.395081,436.274200 418.989868,440.462372 
M579.786621,420.544556 
	C579.248108,420.287292 578.799133,419.584747 577.941589,420.314636 
	C578.623535,421.510071 580.165222,422.384308 579.744202,424.282990 
	C578.330078,425.624542 576.573120,426.854858 575.791260,428.971558 
	C575.453247,429.886810 574.643738,430.667053 575.488892,431.626404 
	C576.448547,432.715851 577.470764,432.326630 578.593323,431.739410 
	C583.579651,429.130768 584.061096,426.085724 579.786621,420.544556 
z" class="svg-elem-1"></path>
<path fill="#000000" opacity="1.000000" stroke="none" d="
M530.941345,330.673981 
	C529.898132,332.227325 529.275330,333.776855 528.131226,334.613342 
	C521.467163,339.485291 517.082336,346.119507 512.374329,352.758820 
	C509.065979,357.424316 510.133667,360.121094 513.007324,363.502258 
	C516.611816,367.743439 520.114929,368.385010 524.431030,366.332642 
	C527.086670,365.069885 528.142090,361.661041 532.237122,361.100067 
	C531.006287,366.036804 527.965820,368.497772 524.122131,370.111053 
	C519.386719,372.098633 514.132568,370.996521 511.954681,367.156097 
	C507.848236,359.914764 502.885132,358.904572 495.997040,361.923340 
	C495.709137,362.049500 495.321777,362.069275 495.009827,362.002533 
	C484.602020,359.776123 474.272583,357.134979 466.505615,349.280090 
	C463.907684,346.652771 461.367584,344.241058 458.199615,342.320526 
	C448.401489,336.380524 447.028107,328.094940 451.054016,317.475189 
	C453.928101,309.893890 457.487274,302.212738 456.820587,293.327087 
	C455.553375,276.436554 468.361542,266.420868 485.574402,270.107880 
	C489.335938,270.913635 493.195374,271.884155 496.175964,274.317383 
	C505.406189,281.852722 514.141479,289.944794 521.315125,299.531799 
	C522.614197,301.267883 523.804138,303.002167 525.469421,304.436523 
	C534.018616,311.800232 535.780151,320.014404 530.941345,330.673981 
M494.716034,284.882629 
	C496.983002,284.882629 499.249939,284.882629 501.902954,284.882629 
	C495.830048,274.481262 480.005310,270.021271 469.333466,275.131653 
	C461.723114,278.776001 457.920776,288.796478 461.459503,296.050354 
	C464.588074,294.684387 466.892181,292.484985 468.923859,289.718079 
	C474.304718,282.390015 480.581604,280.594269 489.075348,283.531128 
	C490.639099,284.071808 492.268341,284.423065 494.716034,284.882629 
M477.270966,316.067810 
	C475.885834,319.659241 475.266510,323.217804 478.400024,326.251465 
	C482.511169,330.231628 495.562256,331.010406 500.220154,327.689667 
	C502.409119,326.129059 502.860474,323.909119 502.610870,321.498688 
	C502.292694,318.426636 499.737671,319.355072 497.929688,319.160767 
	C494.149109,318.754486 490.873077,317.312592 488.069824,314.766357 
	C482.839508,310.015594 482.833740,310.014496 477.270966,316.067810 
M522.049255,324.590088 
	C521.719543,327.954865 520.739075,331.313171 521.654968,334.836121 
	C531.238098,330.175537 532.929749,316.817749 524.717102,309.072205 
	C525.636108,314.542694 523.022156,318.960846 522.049255,324.590088 
M510.258942,350.568146 
	C511.381989,348.970825 512.898987,347.594025 513.203247,345.224274 
	C503.703735,345.834320 499.067688,355.387299 489.224884,356.647797 
	C496.081085,359.903351 500.712646,358.437286 510.258942,350.568146 
M455.851349,323.895538 
	C455.165222,323.062103 455.145416,321.645020 453.744110,321.423737 
	C449.712738,327.201202 453.841980,337.935425 460.979553,339.173828 
	C459.857574,334.034668 460.507935,328.499908 455.851349,323.895538 
M499.035553,310.312256 
	C495.591522,307.181122 491.940216,306.089905 487.553894,308.705872 
	C491.531189,314.742737 495.521912,316.469116 500.903839,314.784637 
	C501.477112,313.117706 500.360443,312.015839 499.035553,310.312256 
M478.092316,348.276611 
	C481.645996,354.617615 484.607361,355.380341 492.975403,351.632629 
	C489.328888,351.150421 486.458221,350.161469 483.839874,348.473938 
	C482.163605,347.393555 480.337433,346.556213 478.092316,348.276611 
M483.583405,334.257507 
	C490.858734,338.207397 494.828766,337.808075 498.293091,332.624756 
	C492.289948,333.747711 486.432220,333.522766 480.519379,332.389709 
	C481.355957,332.890442 482.192505,333.391174 483.583405,334.257507 
M466.314423,320.600372 
	C465.661224,319.964752 466.114044,318.539703 464.765442,318.374115 
	C461.453186,326.939880 461.778931,328.446472 467.442810,330.418243 
	C467.788849,327.280884 467.952057,324.202728 466.314423,320.600372 
M485.523682,287.776245 
	C486.249420,286.559052 485.583984,285.741638 484.508850,285.669525 
	C480.348419,285.390320 476.607361,286.294464 473.485596,290.195099 
	C478.162720,291.665955 481.669006,290.269714 485.523682,287.776245 
M514.315308,340.679932 
	C517.165344,338.651245 517.618225,335.740326 517.627197,331.672668 
	C514.287354,335.179321 510.364319,337.094910 509.593903,341.762787 
	C511.329376,342.073517 512.532288,341.605621 514.315308,340.679932 
M467.278381,335.429230 
	C466.190826,334.866669 465.439240,333.421295 463.865906,334.091064 
	C464.139679,341.133545 465.002472,342.354797 469.772827,342.294373 
	C469.951111,339.891083 469.025330,337.846893 467.278381,335.429230 
M513.444946,330.604553 
	C518.719666,325.762756 519.037781,323.077240 514.594666,318.188110 
	C514.028748,322.473145 513.497131,326.498718 513.444946,330.604553 
M505.567810,289.833374 
	C503.761108,289.232025 502.031616,288.032227 499.612457,289.175446 
	C501.554749,292.463135 503.721283,295.017395 507.764282,295.481812 
	C508.267090,293.183197 507.331665,291.683167 505.567810,289.833374 
M457.272980,316.539703 
	C457.398285,318.363983 457.694672,320.114960 459.541077,321.624298 
	C460.589478,318.036499 461.566040,314.694427 462.879181,310.200623 
	C459.824860,312.153290 457.968109,313.393494 457.272980,316.539703 
M497.091095,348.625824 
	C498.832703,348.425781 500.112000,347.630157 500.922333,345.404877 
	C497.389771,345.994232 494.209625,346.524780 491.029510,347.055328 
	C491.053406,347.265656 491.077301,347.475983 491.101227,347.686310 
	C492.862427,347.995636 494.623657,348.304932 497.091095,348.625824 
M492.952820,294.881622 
	C488.825378,294.525238 484.623962,291.757446 480.607788,295.271790 
	C484.791809,294.633942 488.965576,294.809967 492.952820,294.881622 
M508.339020,333.080780 
	C508.518829,332.172546 508.973694,331.237854 507.953949,330.278687 
	C505.571411,331.454956 505.142151,333.854156 504.050659,336.094147 
	C506.249939,336.218719 507.272156,335.096069 508.339020,333.080780 
M472.748718,308.286835 
	C472.906006,306.587067 472.209717,305.734619 471.063416,307.391876 
	C469.747131,309.294861 470.139069,311.649445 471.015503,313.966644 
	C471.562744,312.275879 472.109955,310.585114 472.748718,308.286835 
M468.682404,299.740692 
	C468.682587,299.904236 468.648315,300.077942 468.692627,300.228485 
	C468.736511,300.377563 468.899261,300.633667 468.942383,300.620605 
	C471.355957,299.887787 472.251251,297.968292 473.099731,295.576416 
	C469.699066,294.940247 469.391602,297.226868 468.682404,299.740692 
z" class="svg-elem-2"></path>
<path fill="#000000" opacity="1.000000" stroke="none" d="
M606.805420,323.674042 
	C609.129089,314.227173 606.685608,306.431580 600.184753,299.986755 
	C597.842346,297.664459 597.023010,295.567169 597.386719,292.133087 
	C598.623169,280.456818 594.440063,270.737732 584.819458,263.922729 
	C574.464233,256.587311 563.059326,256.651062 552.090393,261.949463 
	C546.953186,264.430908 544.522583,263.650726 540.833679,259.696167 
	C525.599915,243.365067 501.732391,244.090683 487.257568,261.049622 
	C484.848572,263.872040 483.334106,264.014069 480.445068,261.550415 
	C464.266296,247.753784 444.002411,251.350830 433.657837,269.912140 
	C431.686493,273.449249 429.813507,273.473358 426.461792,272.422058 
	C410.031860,267.268921 395.073242,273.625000 389.033234,288.134735 
	C386.289825,294.725067 386.322845,301.513611 388.524323,308.168762 
	C389.578125,311.354462 389.206665,313.299164 386.451630,315.400055 
	C378.628235,321.365936 375.170898,329.292725 377.366791,339.106689 
	C379.492035,348.605011 385.591125,354.570770 394.909607,356.996674 
	C398.604614,357.958679 400.101501,359.634216 398.840851,363.311920 
	C397.562714,367.040649 399.349274,371.125427 397.614716,375.337128 
	C393.864685,372.225372 394.773193,368.375031 395.039215,365.003143 
	C395.278442,361.970917 394.523102,360.727386 391.590576,359.613647 
	C371.237885,351.883942 366.797028,328.461182 382.760254,313.711548 
	C384.361511,312.232025 385.839752,311.141418 385.016235,308.317108 
	C376.968170,280.715576 401.765839,262.505188 423.801941,267.893463 
	C428.240936,268.978912 430.255646,267.797333 432.697205,264.332458 
	C444.088959,248.165924 463.958405,244.903107 480.134583,256.460968 
	C482.887451,258.427856 484.403015,258.246643 486.863403,256.001678 
	C504.541138,239.871674 527.099915,240.463898 543.920410,257.578033 
	C546.504456,260.207214 548.474060,259.328796 550.977905,258.280914 
	C561.450500,253.898056 571.900208,253.213058 582.386658,258.354919 
	C595.108032,264.592621 600.873474,275.190308 601.205566,288.891083 
	C601.306702,293.067078 601.968628,296.314209 604.778198,299.729401 
	C614.952148,312.096649 613.056641,329.508759 600.681091,339.924683 
	C598.270813,341.953339 597.185303,343.681641 597.768860,347.060822 
	C601.177490,366.796326 583.783264,383.993744 563.742188,380.912018 
	C559.789185,380.304138 555.831116,379.555084 552.215088,377.780212 
	C549.952637,376.669739 548.779663,377.262390 547.299622,379.231812 
	C535.886780,394.418518 519.727173,398.097778 502.699249,389.270050 
	C499.601410,387.664001 498.115814,387.811340 495.796478,390.663239 
	C485.889160,402.845367 468.599274,404.360016 454.965302,394.246307 
	C451.856628,391.940308 450.125061,392.040833 446.951752,394.238342 
	C438.980530,399.758209 430.069672,400.979279 420.780060,397.649994 
	C419.178223,397.075897 417.075165,396.843414 417.059540,394.366394 
	C418.472565,392.846497 419.858246,393.823639 421.206360,394.280212 
	C430.845795,397.544922 439.683624,396.059296 447.354584,389.376312 
	C450.230225,386.871002 452.133759,387.004852 454.951080,389.485138 
	C468.698212,401.587311 484.220734,399.995514 495.059784,385.427002 
	C496.994324,382.826874 498.561310,382.637634 501.250580,384.259827 
	C519.120300,395.038757 533.786987,391.837769 545.887207,374.476715 
	C547.821289,371.701813 549.641174,372.534912 551.848877,373.592926 
	C558.780090,376.914795 565.916992,378.323578 573.653442,376.801636 
	C587.779541,374.022736 596.876770,360.974335 594.004822,346.815521 
	C593.205322,342.873962 593.199951,340.050690 597.377563,337.758789 
	C602.591492,334.898407 605.126587,329.683533 606.805420,323.674042 
z" class="svg-elem-3"></path>
<path fill="#000000" opacity="1.000000" stroke="none" d="
M637.921631,327.945984 
	C619.761047,293.761871 638.744507,256.957520 676.709534,252.070267 
	C702.719055,248.722061 729.847412,271.472565 731.271301,297.827087 
	C732.652222,323.386444 719.734558,342.368225 695.325928,350.086639 
	C691.138428,351.410858 689.896729,354.731628 688.095215,357.789886 
	C681.629028,368.766663 681.485596,368.903961 675.270569,357.993439 
	C672.636963,353.370056 669.431274,350.536285 664.203979,348.940186 
	C652.947693,345.503174 644.494263,338.075897 637.921631,327.945984 
M664.882568,345.657471 
	C674.788940,345.771759 676.503357,355.201935 681.757874,361.312195 
	C683.217651,358.903137 684.527283,357.167694 685.390747,355.233093 
	C687.549072,350.397156 690.842224,347.381714 696.191833,345.984650 
	C702.520142,344.332001 708.039368,340.751495 712.916321,336.349731 
	C728.319397,322.447266 732.378845,299.552063 722.758606,281.104279 
	C712.715210,261.845184 691.136841,251.877563 670.227417,256.838715 
	C649.362610,261.789276 634.002625,280.894501 634.346130,302.168091 
	C634.683105,323.039917 645.362732,337.100342 664.882568,345.657471 
z" class="svg-elem-4"></path>
<path fill="#000000" opacity="1.000000" stroke="none" d="
M563.723511,359.133057 
	C553.486023,358.673676 547.453186,353.976746 546.036011,345.736542 
	C544.890869,339.077972 550.162598,331.929260 557.045837,330.806793 
	C564.018372,329.669739 569.939270,333.742035 571.024231,340.420929 
	C571.755005,344.919617 568.764648,349.832245 564.570923,351.022705 
	C560.662964,352.131989 556.236877,349.974579 554.729553,346.162476 
	C553.446716,342.917969 554.454102,340.200012 557.118469,338.231964 
	C559.404175,336.543518 561.656799,336.603607 563.281921,339.147736 
	C562.929443,340.355377 562.202209,340.718964 561.371094,340.923279 
	C559.625183,341.352386 558.174805,342.103241 558.278809,344.201263 
	C558.350830,345.654175 559.233826,346.699799 560.520447,347.269073 
	C562.390076,348.096344 564.085693,347.659210 565.564514,346.273621 
	C568.736450,343.301697 568.048279,338.141418 563.984985,335.637787 
	C560.547913,333.520020 556.854492,333.447510 553.726929,336.036133 
	C550.340698,338.838837 548.480286,342.509491 550.111877,347.089478 
	C552.182068,352.900360 557.654907,356.273468 563.842224,355.638397 
	C569.785095,355.028412 575.015320,349.838898 575.693665,343.879211 
	C576.545898,336.391418 572.646729,329.863861 565.741577,327.218384 
	C558.326782,324.377655 550.036377,326.575592 545.494202,332.586304 
	C538.903137,341.308319 540.788452,353.236328 549.830017,360.521942 
	C551.789917,362.101227 554.448730,363.013123 555.500732,365.224091 
	C554.759583,367.000824 553.816711,367.040649 552.779968,366.692291 
	C544.774109,364.002075 537.498962,352.779938 537.845337,343.675385 
	C538.216492,333.920013 544.824707,325.379242 553.845154,322.996490 
	C567.785583,319.314087 580.732788,330.063019 579.247253,344.085541 
	C578.425049,351.846710 573.574158,356.663269 563.723511,359.133057 
z" class="svg-elem-5"></path>
<path fill="#000000" opacity="1.000000" stroke="none" d="
M402.065002,306.713715 
	C398.111389,297.838745 400.801575,291.685486 409.683807,289.087860 
	C411.685303,288.502533 412.672577,287.427429 413.662384,285.771759 
	C419.384888,276.199860 432.788574,276.460449 438.206085,286.245605 
	C439.343170,288.299500 440.288940,290.117767 442.724060,291.193054 
	C447.644104,293.365570 449.801941,297.555634 449.174622,302.409454 
	C448.563477,307.137756 444.859314,311.396729 439.547333,311.873413 
	C429.763885,312.751343 419.910706,312.502716 410.108002,311.856018 
	C406.901306,311.644501 404.106537,309.909760 402.065002,306.713715 
M419.179596,284.612335 
	C417.472870,286.085327 416.587463,288.016296 416.015961,290.148376 
	C415.477203,292.158386 414.456451,292.959747 412.056488,292.792664 
	C407.388397,292.467682 404.484253,295.168549 403.880920,299.611847 
	C403.339783,303.597504 406.017303,307.860382 410.393829,308.206696 
	C419.984711,308.965668 429.642670,309.138824 439.236572,308.072266 
	C442.946136,307.659943 445.164032,305.091675 445.586060,301.389893 
	C446.031830,297.479675 443.923218,295.128815 440.288055,294.052399 
	C438.324463,293.470917 436.827301,292.708344 435.946655,290.498169 
	C432.751251,282.478271 427.645905,280.577698 419.179596,284.612335 
z" class="svg-elem-6"></path>
<path fill="#000000" opacity="1.000000" stroke="none" d="
M450.159424,371.078003 
	C446.585480,375.781067 442.075439,378.974365 437.997803,382.626801 
	C436.453918,384.009735 434.874268,384.402039 433.108673,382.955200 
	C427.187927,378.103302 421.265564,373.254028 417.199158,366.604706 
	C414.638306,362.417267 413.740875,358.011566 415.612274,353.286835 
	C418.115295,346.967407 425.316803,344.675659 431.892273,348.215607 
	C433.787079,349.235657 435.192200,350.561859 437.631073,348.785797 
	C441.993988,345.608582 446.711975,345.926880 451.096252,349.003601 
	C454.813080,351.611908 456.357819,357.307800 454.947021,362.580078 
	C454.115387,365.688263 452.432739,368.349701 450.159424,371.078003 
M429.286133,375.196198 
	C435.648254,380.420441 435.644897,380.416901 441.756195,374.631622 
	C444.540558,371.995819 447.179108,369.234283 449.368073,366.069275 
	C451.022614,363.676941 451.978607,361.075806 451.862244,358.125793 
	C451.733673,354.865936 450.416718,352.249268 447.373169,350.932892 
	C444.213562,349.566284 441.214172,350.077789 438.578278,352.441498 
	C437.395599,353.502014 436.872772,355.405945 434.638763,355.477051 
	C434.243164,355.175842 433.668488,354.844299 433.226227,354.385162 
	C428.929932,349.924713 425.127502,348.973480 421.535248,351.495453 
	C417.741058,354.159241 417.054382,359.450043 420.032257,364.525085 
	C422.322144,368.427551 425.402344,371.708557 429.286133,375.196198 
z" class="svg-elem-7"></path>
<path fill="#000000" opacity="1.000000" stroke="none" d="
M544.651489,307.572937 
	C540.026611,303.943481 535.950684,300.249298 532.386841,296.049042 
	C528.632996,291.624847 526.005676,286.745392 526.639587,280.601288 
	C527.573303,271.550171 537.482727,265.981537 545.675903,269.910492 
	C548.045044,271.046631 548.502502,272.578217 547.232971,274.689545 
	C544.231812,279.680664 543.058716,284.438232 548.313171,288.839081 
	C549.392456,289.743042 549.607910,291.409607 548.720398,292.529816 
	C545.483582,296.615356 546.735229,300.558594 548.691589,304.616730 
	C549.261658,305.799133 549.684753,307.265503 548.511841,308.344788 
	C547.226318,309.527618 546.054382,308.505493 544.651489,307.572937 
M544.963196,291.988403 
	C545.019348,291.505920 545.308411,290.775146 545.097534,290.577393 
	C540.334290,286.110321 538.867676,281.364838 542.608459,275.302856 
	C544.093506,272.896393 541.490112,272.397491 539.567810,272.338104 
	C532.804688,272.129150 528.381958,279.004211 530.784668,286.319794 
	C532.692505,292.128815 536.832520,296.284363 541.955322,300.484528 
	C541.428955,296.836182 543.024109,294.700287 544.963196,291.988403 
z" class="svg-elem-8"></path>
<path fill="#000000" opacity="1.000000" stroke="none" d="
M554.761108,270.399902 
	C560.384521,267.687897 565.211182,268.592377 569.378174,272.495270 
	C573.750549,276.590576 574.462708,281.902679 572.727478,287.260712 
	C569.691956,296.633911 562.363281,302.520813 554.666382,307.949432 
	C553.478577,308.787201 552.221436,308.827484 551.165771,307.463745 
	C548.832703,304.449799 548.552979,297.776001 550.670227,294.400269 
	C551.897522,292.443512 553.237610,290.772980 551.473633,288.118164 
	C546.611267,280.800385 547.380371,277.008301 554.761108,270.399902 
M568.718018,287.964233 
	C569.799316,285.628693 569.969177,283.154419 569.739624,280.646698 
	C569.341736,276.299347 566.832520,273.601074 562.724548,272.633057 
	C558.949585,271.743469 556.051575,273.170319 553.825989,276.506500 
	C551.491211,280.006500 551.010925,282.964355 554.452942,286.066498 
	C557.456726,288.773590 557.143250,291.731262 554.661621,294.832245 
	C552.524536,297.502655 551.042725,300.446655 554.771973,303.723694 
	C560.251770,299.393585 565.242126,294.891235 568.718018,287.964233 
z" class="svg-elem-9"></path>
<path fill="#000000" opacity="1.000000" stroke="none" d="
M400.593048,401.100250 
	C392.210449,397.406158 389.090607,390.931122 391.958221,383.923798 
	C394.393860,377.972046 401.338745,375.180878 407.760834,377.572754 
	C413.296265,379.634430 416.837830,385.307648 416.041901,390.838135 
	C415.191437,396.747375 410.202972,401.094818 403.973297,401.317047 
	C402.983948,401.352356 401.989319,401.238953 400.593048,401.100250 
M408.635040,396.348419 
	C412.031891,393.537292 413.675446,390.185822 411.752258,385.821686 
	C410.017731,381.885620 406.957520,379.965942 402.654205,380.191925 
	C398.434174,380.413605 396.041840,382.931702 394.808716,386.748749 
	C393.696381,390.192017 395.121948,393.024994 397.398773,395.356171 
	C400.464447,398.494965 404.160187,398.492462 408.635040,396.348419 
z" class="svg-elem-10"></path>
<path fill="#000000" opacity="1.000000" stroke="none" d="
M603.275391,383.749298 
	C599.396423,377.994995 599.160583,374.043488 602.270447,369.653809 
	C605.051636,365.728058 609.116638,365.032959 613.406738,365.856750 
	C618.162903,366.770050 620.868835,370.057159 621.710388,374.739258 
	C622.538391,379.345551 620.560730,382.942383 616.843628,385.421570 
	C612.145996,388.554810 607.672913,387.385590 603.275391,383.749298 
M604.399353,378.746277 
	C604.926880,379.584442 605.312744,380.570831 606.007202,381.234222 
	C608.537476,383.651428 611.451538,384.573975 614.593140,382.494659 
	C617.438843,380.611206 619.080811,378.017029 617.969116,374.432617 
	C616.835144,370.776398 614.263977,369.042664 610.451538,369.166351 
	C605.955017,369.312256 604.147278,371.874756 604.399353,378.746277 
z" class="svg-elem-11"></path>
<path fill="#000000" opacity="1.000000" stroke="none" d="
M381.634338,413.424011 
	C378.011627,410.505310 376.742401,407.132385 378.399353,403.075775 
	C379.824982,399.585571 382.863373,398.143250 386.382843,398.273743 
	C390.035339,398.409210 392.413483,400.657349 393.705078,404.071594 
	C394.932983,407.317444 393.781738,409.975830 391.521606,412.171967 
	C388.752350,414.862823 385.495911,415.451385 381.634338,413.424011 
M390.621857,406.476959 
	C389.925751,402.747070 387.990082,400.713379 384.052338,402.216187 
	C382.029083,402.988342 381.103821,404.799011 381.352722,407.042267 
	C381.584564,409.131470 382.889160,410.379883 384.830322,410.719940 
	C387.665985,411.216736 389.628601,409.980316 390.621857,406.476959 
z" class="svg-elem-12"></path>
<path fill="#000000" opacity="1.000000" stroke="none" d="
M633.920654,382.800995 
	C637.446655,384.903717 638.949768,387.699005 638.021118,391.350281 
	C637.229553,394.462677 635.105347,396.551056 631.874695,397.136902 
	C628.425049,397.762512 625.673767,396.467926 623.843689,393.484680 
	C622.227722,390.850372 622.166138,388.043579 623.999878,385.553223 
	C626.391541,382.304962 629.563171,380.954895 633.920654,382.800995 
M631.246460,393.626831 
	C634.246582,392.801514 635.219727,390.679962 634.337158,387.940369 
	C633.728149,386.050201 631.952148,385.197876 629.937378,385.509491 
	C627.913879,385.822449 626.654419,387.194550 626.455994,389.178406 
	C626.171082,392.026886 627.780823,393.417938 631.246460,393.626831 
z" class="svg-elem-13"></path>
<path fill="#000000" opacity="1.000000" stroke="none" d="
M415.433624,315.122864 
	C416.116577,315.241577 416.573395,315.328491 416.661072,315.557007 
	C417.824585,318.589996 417.732727,321.486237 414.984406,323.607910 
	C413.679749,324.615112 412.319702,323.796509 411.731964,322.441437 
	C410.188690,318.882965 412.321167,316.857330 415.433624,315.122864 
z" class="svg-elem-14"></path>
<path fill="#000000" opacity="1.000000" stroke="none" d="
M422.142365,329.697479 
	C421.467041,332.031342 420.794006,334.032410 418.215851,333.712158 
	C416.763153,333.531677 415.779724,332.350403 415.966980,330.911163 
	C416.353729,327.938812 418.037384,325.934937 420.886627,325.091980 
	C422.617523,326.310394 422.126465,327.879730 422.142365,329.697479 
z" class="svg-elem-15"></path>
<path fill="#000000" opacity="1.000000" stroke="none" d="
M427.218750,318.605530 
	C428.403442,316.697540 429.630127,315.431458 431.724609,314.916779 
	C433.866455,317.634338 432.633148,320.167084 431.289581,322.544037 
	C430.704498,323.579102 429.404053,323.924500 428.222473,323.263245 
	C426.420380,322.254608 426.524628,320.640411 427.218750,318.605530 
z" class="svg-elem-16"></path>
<path fill="#000000" opacity="1.000000" stroke="none" d="
M710.279236,293.938782 
	C709.272766,304.541321 702.696655,311.455994 696.179443,318.377563 
	C694.705078,319.943359 692.998291,321.300323 691.334717,322.676331 
	C679.140442,332.762695 682.816406,332.066895 670.773987,322.874603 
	C664.805298,318.318573 659.660095,312.851410 655.543152,306.513000 
	C652.582947,301.955536 650.591125,297.028717 651.327209,291.487823 
	C652.180054,285.067017 655.323181,280.091248 661.833496,278.266998 
	C668.252136,276.468475 674.027954,277.858337 678.487488,283.168396 
	C679.121826,283.923859 679.620117,284.793610 680.462463,286.019409 
	C686.199463,278.976593 692.608276,275.376526 700.941223,278.832520 
	C707.316650,281.476654 709.946838,286.844574 710.279236,293.938782 
z" class="svg-elem-17"></path>
</svg>