<svg version="1.1" id="Layer_1" xmlns="http://www.w3.org/2000/svg" xmlns:xlink="http://www.w3.org/1999/xlink" x="0px" y="0px" width="100%" viewBox="0 0 1024 1024" enable-background="new 0 0 1024 1024" xml:space="preserve" height="1024">
<path fill="#000000" opacity="1.000000" stroke="none" d="
M556.473389,416.386047 
	C554.108032,414.136902 549.301941,412.980316 551.617371,409.219635 
	C553.856445,405.582916 557.699097,408.140961 560.451416,409.750824 
	C567.086426,413.631653 572.949280,417.782501 578.224670,424.181946 
	C586.107727,433.744659 595.248352,442.916473 605.989929,449.847992 
	C610.612488,452.830933 615.400818,452.644989 620.257751,450.300598 
	C627.829407,446.645813 634.380981,441.474640 640.898010,436.296661 
	C647.995850,430.657196 655.344604,425.571503 664.188843,423.033661 
	C664.922791,422.823059 665.545959,422.226532 666.851501,421.419067 
	C655.413635,415.336639 656.952087,405.222687 658.008118,395.444427 
	C658.294617,392.791687 658.313110,390.920135 656.435974,388.697357 
	C653.105896,384.754089 654.184265,381.170898 658.941040,379.286072 
	C665.888550,376.533203 672.794739,373.303284 680.588074,374.387726 
	C689.303650,375.600555 694.638489,380.676697 696.950195,389.658997 
	C699.020325,397.702759 696.077942,408.295013 689.916504,412.252228 
	C686.614014,414.373291 686.004150,416.839996 686.340515,420.175354 
	C686.669922,423.441681 689.538513,423.145874 691.592468,423.807007 
	C703.704834,427.705811 711.356079,436.274414 716.702759,447.378021 
	C724.728394,464.045135 728.829834,481.868317 732.297363,499.881531 
	C734.908813,513.447876 737.329285,527.123291 737.787109,540.885071 
	C738.097290,550.207886 740.617737,559.229675 740.306885,568.549500 
	C740.202454,571.679993 739.661987,574.482544 737.186157,576.649719 
	C735.357971,578.249878 733.950745,580.654175 730.842712,579.311829 
	C728.036011,578.099670 726.052673,576.293579 725.828308,573.076538 
	C725.634521,570.297729 726.075928,567.411865 721.912415,566.838257 
	C720.163635,566.597351 719.536438,564.111633 720.217163,562.638306 
	C723.924011,554.615662 720.471008,547.571594 717.684326,540.335205 
	C715.894592,535.687622 714.462158,530.902405 712.309692,526.156982 
	C712.309692,530.628357 712.351257,535.100159 712.297302,539.570923 
	C712.249390,543.540222 712.413879,547.398071 709.169861,550.722778 
	C707.178711,552.763611 708.179138,556.168396 707.866760,558.938904 
	C706.543335,570.676147 705.393738,582.434753 704.332153,594.199280 
	C702.699402,612.293823 706.417419,629.612488 711.997986,646.687622 
	C716.444519,660.292847 720.576843,674.000427 724.894714,687.647949 
	C726.635071,693.148743 726.521545,699.115784 729.477905,704.341553 
	C731.046997,707.115051 728.945923,709.137146 726.822815,710.574219 
	C723.851685,712.585144 720.696777,714.324585 716.627563,716.779053 
	C734.500916,718.404785 751.362671,717.033081 768.849731,717.907959 
	C767.023682,722.001587 764.205505,720.972473 762.048645,720.976501 
	C725.884521,721.043335 689.720215,721.012695 653.555969,721.020996 
	C524.231323,721.050842 394.906708,721.094299 265.582092,721.066101 
	C263.215851,721.065613 260.256897,722.283508 257.947205,718.334778 
	C269.145660,716.687134 279.876617,718.483459 291.318604,717.140015 
	C288.141174,715.302612 285.668274,713.803467 283.131531,712.421265 
	C278.866852,710.097717 278.606201,707.016724 279.691315,702.377075 
	C285.930725,675.699158 296.947571,650.369873 301.942719,623.375854 
	C304.117065,611.625427 302.580841,599.802307 301.312744,588.048096 
	C300.367188,579.283813 298.835297,570.580078 298.646515,561.739441 
	C298.501404,554.945190 294.892883,548.845276 295.458679,541.727234 
	C296.175385,532.710022 298.351074,524.018433 299.781952,515.171509 
	C301.525543,504.391266 300.921387,493.572113 300.860992,482.757294 
	C300.808014,473.265808 300.520569,463.786713 302.531830,454.400208 
	C303.800537,448.479126 306.029205,442.986969 309.144165,437.995697 
	C301.822906,429.351166 301.757050,428.772308 307.949646,419.165680 
	C311.188049,414.141907 311.112915,408.431427 311.695984,402.823761 
	C312.700684,393.161011 316.205078,385.008850 325.886108,381.050293 
	C342.244751,374.361298 358.297577,384.167755 359.062042,401.661041 
	C359.434784,410.191040 359.377228,418.547363 363.577393,426.409241 
	C365.352722,429.732239 364.187195,431.169586 357.769257,437.206848 
	C367.271637,445.558868 375.049866,455.646393 385.015015,463.477814 
	C390.699066,467.944824 394.350647,467.815582 400.532410,463.876007 
	C409.608002,458.092133 416.365784,449.636780 424.585632,442.844574 
	C426.958221,440.884094 427.216827,436.508575 428.811737,433.430481 
	C431.258850,428.707581 433.039764,428.464417 437.324768,431.952393 
	C439.255127,430.845673 441.232849,429.652100 443.266449,428.562927 
	C445.254669,427.497986 447.154205,427.891052 448.859985,429.244965 
	C450.561798,430.595703 451.143616,432.233429 450.749603,434.517029 
	C450.104645,438.254822 448.944000,441.565613 445.830505,443.979065 
	C441.264008,447.518921 438.031708,451.715698 435.592468,457.283844 
	C432.008118,465.465973 426.131104,472.530151 420.314148,479.423706 
	C419.244720,480.691040 418.203339,481.982086 417.047455,483.385468 
	C417.817444,485.268463 420.246307,485.919434 419.844177,488.132385 
	C426.626221,487.463959 428.993164,488.598663 429.929230,493.287506 
	C430.918396,498.242310 427.482910,500.458862 423.652405,502.187714 
	C422.595978,502.664490 421.482910,503.162811 420.352173,503.305725 
	C403.299652,505.461273 387.638062,513.898682 370.219330,514.386902 
	C366.045044,514.503906 367.045532,517.537842 367.474670,519.832581 
	C368.758301,526.696228 370.340149,533.503662 371.667847,540.359680 
	C372.430420,544.297546 372.958008,548.285278 370.870911,552.066345 
	C369.952423,553.730347 370.797333,555.301941 371.176697,556.900513 
	C375.209137,573.892517 379.257172,590.886414 381.653870,608.207031 
	C383.781219,623.580750 384.399231,639.039124 383.779053,654.548523 
	C383.127563,670.840698 382.719788,687.148987 380.579529,703.341614 
	C380.298492,705.467834 381.719452,706.266663 383.127594,707.185181 
	C388.037537,710.387756 394.575409,711.088989 397.833252,716.943298 
	C398.224976,717.647156 400.300293,717.590210 401.595215,717.589905 
	C469.257141,717.572571 536.919067,717.513916 604.580994,717.516296 
	C606.964478,717.516357 608.611755,716.975708 609.973022,714.826538 
	C612.405029,710.986877 616.926208,710.395386 620.721985,708.957092 
	C625.884583,707.000916 627.372925,704.211121 626.696228,698.497986 
	C625.151550,685.456970 624.628906,672.293518 623.745361,659.176208 
	C623.365112,653.529480 623.164734,647.870850 622.805237,642.222534 
	C621.232910,617.516296 625.628723,593.490845 631.047913,569.580994 
	C632.517639,563.096130 634.099060,556.635498 635.483948,550.132874 
	C636.093323,547.271790 636.343384,544.582581 635.230835,541.456848 
	C633.466431,536.500122 635.009583,531.165588 636.135620,526.185181 
	C639.557739,511.049988 641.789062,495.778931 642.523804,480.285522 
	C642.593567,478.814850 642.947510,477.287964 641.660767,475.386719 
	C637.666077,476.783783 633.488525,478.183044 629.354797,479.701599 
	C614.699951,485.085297 601.883423,482.192627 590.801453,471.267548 
	C580.630737,461.240814 572.285889,449.875702 566.018127,437.046356 
	C564.979004,434.919525 563.493286,433.654480 561.607544,432.538513 
	C555.302063,428.807159 554.795532,427.518158 556.707825,420.383728 
	C557.043762,419.130493 557.841980,417.885284 556.473389,416.386047 
M699.135742,431.310516 
	C692.899231,427.429352 686.988831,424.286163 679.726868,430.126343 
	C676.111267,433.034027 670.697388,433.799988 666.976501,429.514832 
	C664.654480,426.840637 662.684753,427.058716 660.022583,428.198700 
	C654.921387,430.383179 650.394470,433.449738 646.054810,436.864532 
	C639.379456,442.117157 632.780945,447.503113 625.382690,451.733643 
	C615.044373,457.645355 609.106934,457.142975 599.751648,449.834595 
	C592.897156,444.479767 587.029053,438.078247 581.003357,431.867004 
	C578.371887,429.154541 576.526855,430.006653 574.349121,432.114746 
	C572.249023,434.147644 568.310791,435.165466 570.940247,439.495331 
	C578.061707,451.221771 585.868713,462.383392 596.425720,471.349762 
	C602.502747,476.511078 609.353516,479.442932 617.514343,478.711731 
	C624.582520,478.078461 631.040405,475.445435 637.631775,473.081146 
	C641.627502,471.647888 643.097107,469.447723 642.873047,465.320923 
	C642.757202,463.187225 641.768433,460.234894 644.872253,459.089783 
	C646.331177,459.662933 646.401550,460.694305 646.384583,461.693329 
	C646.135315,476.342773 646.225647,491.023865 643.721130,505.523956 
	C642.136536,514.698181 640.110657,523.795837 638.501038,532.966187 
	C637.311340,539.744446 638.149597,540.977966 644.501831,542.468079 
	C663.864502,547.010254 683.351257,550.097778 703.360962,547.770142 
	C706.728210,547.378479 708.627991,546.435791 708.743835,542.782471 
	C709.240784,527.119263 710.027405,511.499908 702.553650,496.832001 
	C699.695557,491.222717 697.844666,485.097046 695.587646,479.186554 
	C694.935303,477.478333 693.496582,475.657379 695.596558,473.952942 
	C697.790222,474.485901 698.074707,476.308441 698.671326,477.780701 
	C700.922302,483.335846 703.067139,488.933899 705.272095,494.507843 
	C711.829407,511.084473 716.965515,528.156677 722.814697,544.979858 
	C724.242798,549.087280 726.975769,549.061646 730.343384,548.504944 
	C733.820496,547.930298 735.096924,545.987854 734.672791,542.553955 
	C733.939270,536.615051 733.455444,530.644470 732.672363,524.712769 
	C729.707520,502.255127 725.989075,479.945374 717.769897,458.688232 
	C713.790588,448.396667 709.383667,438.274506 699.135742,431.310516 
M413.367523,481.866364 
	C420.723297,474.294800 426.680542,465.682068 432.313538,456.796112 
	C434.369080,453.553436 433.324249,451.645172 430.569885,449.782501 
	C428.036713,448.069519 426.053864,445.268372 422.610718,448.919281 
	C416.900269,454.974243 410.844208,460.741394 404.105133,465.667694 
	C395.082428,472.263367 389.137299,472.066010 380.887268,464.550446 
	C374.611603,458.833527 368.841187,452.565948 362.725922,446.667877 
	C357.580811,441.705444 352.280487,436.897888 345.707245,433.952179 
	C340.733032,438.927246 338.729492,439.276031 332.364227,436.272888 
	C330.864838,435.565521 329.158936,434.907562 328.102295,433.729645 
	C325.800964,431.164246 323.503754,431.734436 320.950928,433.014313 
	C312.484894,437.259064 308.397369,444.683777 306.396454,453.451080 
	C303.852539,464.597351 303.791168,475.948120 304.660461,487.260925 
	C305.316925,495.803802 304.702942,504.243011 303.614349,512.658203 
	C302.186035,523.699097 298.888702,534.466431 298.915314,545.735779 
	C298.924408,549.587280 300.258606,551.385071 304.309631,551.857300 
	C323.616638,554.107666 342.838379,553.816467 362.021332,550.681335 
	C368.594543,549.606995 369.648285,548.358948 368.465637,541.778259 
	C367.201385,534.743469 365.302460,527.809387 364.316742,520.742615 
	C363.669708,516.104187 361.360291,514.671875 357.121338,514.403015 
	C347.795441,513.811340 339.820862,509.918121 332.843628,503.812897 
	C324.980072,496.932129 318.915558,488.601105 313.421631,479.809570 
	C312.653534,478.580444 311.612671,477.246979 313.506653,475.963867 
	C315.889648,476.315277 316.476135,478.403839 317.523834,480.018188 
	C322.439789,487.592804 327.888000,494.735413 334.630524,500.797974 
	C341.970520,507.397766 350.446869,510.971954 360.479553,511.042175 
	C373.778564,511.135254 386.595337,508.452271 399.397675,505.292725 
	C404.600037,504.008820 403.804047,500.321075 403.673645,496.676727 
	C403.525757,492.543823 400.444580,493.128204 397.857574,493.125244 
	C387.863251,493.113800 377.860535,493.533936 367.899506,492.287781 
	C359.961365,491.294678 353.247589,488.269440 348.429108,481.504669 
	C343.490814,474.571564 338.870941,467.452698 334.759766,460.006744 
	C334.013855,458.655762 332.638519,457.288666 333.894775,455.443909 
	C336.507996,454.711761 336.896912,456.922302 337.739075,458.379242 
	C341.575684,465.016449 345.380890,471.672028 349.912506,477.872955 
	C351.880707,480.566223 353.877625,483.245361 356.763184,485.070648 
	C360.718658,487.572662 362.101105,486.985413 362.545624,482.403748 
	C363.146545,476.209839 362.666351,470.107727 360.758606,464.130066 
	C360.258484,462.562927 358.879486,460.758118 360.994659,459.219513 
	C363.342957,459.323517 363.478729,461.308655 363.883453,462.763306 
	C365.220520,467.569183 366.597412,472.383942 366.318054,477.477325 
	C366.228668,479.107086 365.841736,481.058380 367.439087,482.124268 
	C372.628662,485.587341 377.244812,490.296692 384.315979,489.770264 
	C387.797913,489.511017 391.376617,489.258911 394.799561,489.763397 
	C402.411957,490.885315 408.002930,487.659546 413.367523,481.866364 
M651.360046,655.790100 
	C650.153809,667.693359 648.537537,679.574036 647.879944,691.507507 
	C647.411194,700.014160 642.819824,708.057556 645.407288,717.051819 
	C645.804138,717.177185 646.415710,717.537903 647.028137,717.539307 
	C662.840576,717.575745 678.653137,717.573547 694.465637,717.582520 
	C695.673401,717.583191 697.069763,717.482178 697.561157,716.359375 
	C699.550476,711.813416 704.137512,709.867432 707.225647,706.431091 
	C709.492004,703.909180 710.185303,701.699341 708.295044,698.444092 
	C702.698486,688.805969 697.491455,678.942810 692.030945,669.224426 
	C678.267700,644.728943 668.762451,618.895996 666.532410,590.630615 
	C665.896118,582.565125 664.402588,574.567261 663.302124,566.538330 
	C663.073547,570.234985 663.742859,573.828918 663.902222,577.445374 
	C664.135193,582.731018 666.813049,588.156250 664.757324,593.235352 
	C656.738586,613.047241 653.089600,633.732788 651.360046,655.790100 
M308.294220,684.720459 
	C305.561829,689.680664 302.931976,694.701721 300.045502,699.570618 
	C298.924469,701.461548 298.323578,703.124084 299.493866,705.117920 
	C302.408295,710.083435 308.324890,712.153809 311.192963,717.208130 
	C311.443420,717.649536 312.747864,717.597412 313.562958,717.598450 
	C328.726593,717.618286 343.890442,717.575012 359.053802,717.641968 
	C361.923126,717.654663 362.671844,716.367188 362.813721,713.694580 
	C363.058838,709.076599 362.526794,704.671326 361.782318,700.073792 
	C359.845093,688.110229 359.044342,675.965210 357.695801,663.903198 
	C355.322845,642.677979 351.637115,621.719299 343.427124,601.866516 
	C341.527496,597.273010 341.396729,592.923340 342.126129,588.245972 
	C343.119812,581.874146 343.944244,575.475891 344.841278,569.088989 
	C343.432495,572.866028 342.832703,576.769958 342.282043,580.680786 
	C339.548706,600.093872 338.050629,619.742126 331.039246,638.326965 
	C325.018768,654.285095 316.539764,669.031128 308.294220,684.720459 
M674.963501,428.381134 
	C682.783997,425.784363 682.864929,425.623596 682.908020,417.541992 
	C682.931091,413.214600 681.605042,408.741852 685.409058,404.929626 
	C686.685547,403.650330 686.014221,401.046844 683.182068,401.558258 
	C679.784241,402.171844 679.376770,399.938049 678.648621,397.648163 
	C676.967468,392.361389 673.467712,390.786102 666.823975,391.437134 
	C661.366638,391.971954 661.199158,395.642456 661.184448,399.640503 
	C661.174622,402.297760 661.077576,404.963531 661.247375,407.610901 
	C661.698853,414.649170 665.092468,417.410034 671.987610,416.656769 
	C673.478088,416.493927 675.152161,415.129395 676.588623,417.050385 
	C676.521606,419.887634 673.893311,420.053070 672.211853,421.132111 
	C670.152771,422.453430 669.149841,424.373291 669.671509,426.610535 
	C670.207458,428.908905 672.382629,428.622803 674.963501,428.381134 
M338.043549,421.970612 
	C342.457550,423.180969 347.061859,423.881958 349.180267,418.659088 
	C352.242371,411.109650 351.261841,403.511780 348.194031,395.270386 
	C343.005249,402.562225 337.311432,407.419342 328.562469,407.468079 
	C325.520386,407.484985 325.739929,410.171112 327.122009,411.844360 
	C330.214478,415.588379 329.929474,419.910980 329.670929,424.171143 
	C329.287506,430.489410 330.227264,432.199188 336.049011,434.068695 
	C338.001038,434.695526 340.250244,435.446106 341.288757,433.050568 
	C342.287170,430.747528 341.711639,428.442322 339.218750,427.079559 
	C338.053070,426.442383 336.621185,426.063477 335.759094,425.145660 
	C333.744904,423.001373 333.899750,421.520660 338.043549,421.970612 
M626.788452,709.419739 
	C622.625427,711.522522 618.462463,713.625305 614.299438,715.728149 
	C622.414490,716.721497 630.281128,716.830688 638.141785,716.661865 
	C640.875366,716.603271 641.628418,714.274231 641.477417,711.995850 
	C641.334106,709.833557 641.805786,706.828857 638.625793,706.470398 
	C634.683228,706.026062 630.379944,704.901550 626.788452,709.419739 
M718.172546,711.628296 
	C719.331848,710.982971 720.482666,710.321716 721.652100,709.695312 
	C724.980530,707.912598 727.240845,706.222595 724.987427,701.590759 
	C722.757446,697.006958 720.270081,699.086426 717.330688,699.894775 
	C714.841187,700.579407 713.400330,701.907715 712.476990,704.300232 
	C711.070190,707.945557 708.497192,710.748352 705.335510,713.048279 
	C704.250854,713.837280 702.464233,714.327759 703.291687,716.791931 
	C708.631226,717.042175 713.003418,714.277100 718.172546,711.628296 
M379.519226,708.934021 
	C376.937164,705.805176 373.448883,706.109253 369.912018,706.236389 
	C367.415222,706.326233 366.101837,707.276855 366.352936,709.822815 
	C366.594391,712.270447 365.079102,716.166870 368.814758,716.436768 
	C376.442413,716.987854 384.137817,716.601929 392.416138,716.601929 
	C390.471710,713.903625 388.207703,713.560608 386.340118,712.565430 
	C384.288910,711.472412 382.213654,710.424438 379.519226,708.934021 
M284.604858,700.614197 
	C281.361206,707.210144 281.548615,707.858826 288.045868,711.294434 
	C290.978119,712.844971 293.960999,714.302002 296.945374,715.751038 
	C299.523193,717.002563 302.163849,717.339783 305.934570,716.186951 
	C300.856659,711.920837 297.074829,707.741760 293.912323,702.848633 
	C292.483093,700.637207 288.710419,698.496338 284.604858,700.614197 
M724.363892,559.681152 
	C723.846558,563.232422 727.627075,559.053040 727.916748,561.725830 
	C728.395996,566.147278 734.287720,568.565369 732.302856,574.037964 
	C733.710632,571.590515 731.969543,568.347351 734.609619,566.449219 
	C736.662109,567.471985 735.793640,569.417175 736.693665,570.992981 
	C736.935974,565.432556 736.739014,560.314270 735.499268,555.298523 
	C735.121765,553.771240 734.984436,551.604980 732.845520,551.624634 
	C730.612244,551.645081 727.925354,551.510132 726.475220,553.528809 
	C725.369202,555.068359 725.094666,557.205261 724.363892,559.681152 
M407.418732,499.013275 
	C411.105316,502.643890 415.068115,500.619965 418.360962,500.224518 
	C418.479034,495.290100 412.789642,493.765503 413.347443,488.787842 
	C409.866913,491.092865 405.716187,492.792175 407.418732,499.013275 
M439.192169,438.924011 
	C438.269165,437.890259 439.099823,436.667542 439.122406,435.571411 
	C436.190216,436.069550 435.356232,438.955933 433.571960,439.840485 
	C431.457336,440.136139 432.296661,437.894653 430.882782,437.754639 
	C429.620148,440.838013 427.840698,443.812836 431.781372,446.433899 
	C436.122864,449.321594 438.311249,445.874268 441.040588,443.842072 
	C440.431702,442.213257 439.921387,440.848175 439.192169,438.924011 
M569.972595,425.449341 
	C568.118286,427.251221 566.268555,429.054871 567.229004,432.398407 
	C570.715515,431.525574 573.507080,429.588928 574.130310,426.590820 
	C574.744507,423.636261 572.572632,421.102112 568.961975,418.765259 
	C569.935852,421.373260 571.945557,422.917419 569.972595,425.449341 
z" class="svg-elem-1"></path>
<path fill="#000000" opacity="1.000000" stroke="none" d="
M594.521667,340.119446 
	C607.747681,332.202271 611.808594,314.936676 603.909851,304.846039 
	C599.114868,298.720428 597.883484,292.791504 597.246521,285.274628 
	C595.383911,263.290527 571.301758,251.474960 551.301819,262.156464 
	C547.140564,264.378845 544.896484,264.186310 541.698120,260.521362 
	C526.650146,243.278015 501.737061,243.713135 487.167236,261.243408 
	C485.154114,263.665588 483.762482,264.067078 481.098358,261.878021 
	C463.742218,247.616867 445.107880,250.814453 433.538483,270.130951 
	C431.370544,273.750610 429.192902,273.173828 426.095886,272.189758 
	C409.130615,266.799103 392.862305,274.791412 388.066681,290.759613 
	C386.643707,295.497864 386.028320,300.633362 387.822845,305.028931 
	C390.207916,310.870911 388.030823,313.881042 383.953735,317.698395 
	C372.479858,328.441345 375.168640,347.111237 388.933014,354.621643 
	C391.247589,355.884521 393.865662,356.604828 396.371185,357.498199 
	C397.649872,357.954132 399.371765,358.329956 399.107117,359.901947 
	C398.265167,364.903320 398.463043,369.980316 398.453827,375.833740 
	C393.996979,373.108063 394.698578,369.494080 395.017670,366.549438 
	C395.466827,362.404510 394.263580,360.589294 390.202728,359.038513 
	C372.699615,352.354187 366.325470,327.977997 381.979279,314.363983 
	C384.070587,312.545227 385.607239,310.921661 384.653809,307.609711 
	C377.613312,283.153290 398.590851,262.696259 422.832733,267.720734 
	C427.606659,268.710205 430.179352,267.938293 433.093781,263.901367 
	C444.645569,247.900269 464.142029,244.927048 480.163086,256.475769 
	C482.846222,258.409882 484.343170,258.450806 486.850220,256.134949 
	C504.794922,239.558792 526.672852,240.162506 544.123901,257.708801 
	C546.324890,259.921844 548.000854,259.419861 550.269104,258.437683 
	C560.137512,254.164490 570.132202,253.156219 580.349426,257.338257 
	C593.470825,262.709045 601.768982,275.174774 601.225037,289.573944 
	C601.075684,293.527802 602.104248,296.392853 604.648315,299.439697 
	C614.978943,311.812073 613.377380,329.231689 600.997253,339.592773 
	C598.241821,341.898865 597.244690,343.839661 597.875610,347.565125 
	C601.175537,367.048401 583.842163,383.875153 563.806213,380.913177 
	C559.846985,380.327850 555.925171,379.503143 552.258850,377.830780 
	C550.399658,376.982727 549.154663,376.862488 547.606262,378.791992 
	C534.446533,395.191223 520.312256,398.143555 501.385834,388.674927 
	C500.519653,388.241608 499.580261,387.954620 498.479980,387.522949 
	C495.178040,391.921021 491.521362,395.746338 486.519165,397.984863 
	C475.073730,403.106659 464.381897,401.673187 454.690155,393.897522 
	C451.988617,391.730042 450.327637,391.632599 447.455719,393.722504 
	C439.580505,399.453400 430.747070,400.905640 421.378723,397.862000 
	C419.602783,397.285034 417.374847,396.950592 417.076691,394.369751 
	C418.351715,392.690216 419.782898,393.551971 421.126404,394.057007 
	C430.765381,397.680573 439.531799,395.970856 447.238983,389.379120 
	C450.236450,386.815552 452.176453,386.825104 455.179993,389.559357 
	C468.153046,401.369171 484.451630,399.693115 494.958832,385.509033 
	C497.472717,382.115417 499.442719,383.406219 502.064667,384.934326 
	C513.660889,391.692871 525.321594,392.451385 536.935181,384.927643 
	C540.358582,382.709839 543.246582,379.821442 544.961060,376.179474 
	C546.908386,372.042755 549.264526,372.062195 552.880066,373.945312 
	C559.270691,377.273834 566.086426,378.046143 573.260986,376.836365 
	C587.448914,374.444031 596.803711,361.483643 594.296753,347.262756 
	C593.891479,344.963867 593.241028,342.702667 594.521667,340.119446 
z" class="svg-elem-2"></path>
<path fill="#000000" opacity="1.000000" stroke="none" d="
M486.360718,362.773315 
	C477.723724,360.746155 473.120728,353.579620 466.734406,348.998444 
	C463.817993,346.906403 462.954559,342.974091 464.083984,339.391846 
	C466.624512,331.333862 469.295502,323.387360 469.066895,314.722046 
	C468.997131,312.078094 470.105896,309.141754 473.967682,307.997986 
	C473.181580,312.305328 470.825989,316.087006 472.668854,320.443146 
	C477.007843,318.314514 478.276855,312.614624 483.703369,311.639038 
	C488.666779,310.746735 492.966797,314.548645 497.893219,312.959900 
	C498.420441,310.727905 494.757660,310.310608 495.766449,307.955353 
	C496.831299,307.144379 497.808777,307.728455 498.478607,308.379303 
	C502.865082,312.641693 507.323700,316.847748 511.429199,321.371338 
	C512.829163,322.913879 513.867615,324.857391 515.301270,326.491852 
	C521.921387,334.039459 521.644348,342.396698 513.869141,348.809326 
	C510.093109,351.923645 508.453888,356.294891 505.358185,359.732880 
	C503.487152,361.810791 505.335785,363.880096 506.719574,365.445587 
	C508.525177,367.488251 510.792206,368.115875 513.455322,366.690765 
	C514.969055,365.880829 515.728699,363.630859 518.331177,364.281708 
	C518.349487,367.691345 515.971069,369.192566 513.375610,370.121674 
	C510.318878,371.215790 506.994415,370.688507 505.248840,367.959625 
	C502.662964,363.917145 499.806030,362.852264 495.332886,364.584290 
	C492.360748,365.735199 489.479980,364.087372 486.360718,362.773315 
M488.134644,331.892578 
	C484.871124,329.687653 484.199707,332.971924 483.077942,334.541718 
	C481.740692,336.413055 481.773621,338.599487 483.601410,340.413147 
	C486.017059,342.810120 494.293182,343.838959 497.359222,342.121582 
	C498.768402,341.332275 499.619202,340.198395 499.559631,338.522797 
	C499.483826,336.390900 497.905487,336.406708 496.379913,336.285126 
	C493.260834,336.036438 490.702515,334.638153 488.134644,331.892578 
M515.239380,331.760803 
	C513.097717,335.837189 511.864960,340.048645 512.760437,345.484711 
	C517.333862,341.092896 517.598572,336.845703 515.239380,331.760803 
M500.614319,356.316406 
	C498.007233,357.935303 495.400146,359.554169 492.600464,361.292694 
	C498.747192,361.779053 502.785583,359.435455 505.024506,354.245758 
	C503.331451,353.865845 502.219330,354.862305 500.614319,356.316406 
M493.119354,332.413239 
	C494.703430,333.015381 496.240662,334.463959 498.378357,332.343658 
	C496.586609,329.447021 494.611481,327.492096 490.874146,328.975372 
	C490.685577,330.682709 491.656158,331.341431 493.119354,332.413239 
M467.085236,340.680176 
	C466.915985,343.525604 467.418152,346.048828 470.254730,347.970398 
	C470.910095,342.425262 470.466095,341.370758 467.085236,340.680176 
M481.265198,316.031982 
	C482.979767,318.037628 483.328430,317.958313 487.294250,314.634979 
	C485.241547,314.044739 483.387634,314.381470 481.265198,316.031982 
M484.847260,357.427582 
	C486.588348,358.987091 488.472504,359.120453 490.502014,357.934235 
	C488.466187,357.689972 486.972137,354.160553 484.847260,357.427582 
z" class="svg-elem-3"></path>
<path fill="#000000" opacity="1.000000" stroke="none" d="
M587.360840,274.842590 
	C589.389343,277.879913 590.127197,280.897034 590.123779,284.135284 
	C590.117676,289.955811 590.235291,295.778290 590.120850,301.596405 
	C589.954224,310.065552 584.805786,315.225739 576.285889,315.307159 
	C563.647827,315.427979 551.000000,315.617462 538.372131,315.243622 
	C532.554993,315.071381 527.601501,316.352356 523.088379,319.886719 
	C521.819092,320.880676 520.626648,322.206390 518.734558,321.987610 
	C518.481323,321.780090 518.003174,321.552979 518.020081,321.372162 
	C519.177490,308.995758 513.295105,297.343567 514.716553,284.786774 
	C515.890320,274.418671 519.811035,269.714325 530.316101,269.707886 
	C545.616150,269.698517 560.916565,269.777924 576.215942,269.680115 
	C580.688843,269.651520 584.362549,270.958527 587.360840,274.842590 
M561.498901,311.827148 
	C566.663818,311.818573 571.834045,311.952301 576.992310,311.762939 
	C582.571899,311.558105 586.365845,307.824707 586.550049,302.246490 
	C586.764404,295.755157 586.790588,289.248199 586.611145,282.755981 
	C586.447632,276.838959 582.669617,273.219452 576.722229,273.196655 
	C560.560852,273.134705 544.398682,273.147247 528.237549,273.251526 
	C522.251282,273.290131 518.562256,276.889954 518.386780,282.861633 
	C518.215637,288.687256 518.291809,294.526276 518.476196,300.352539 
	C518.532410,302.127899 518.831665,304.245117 519.848022,305.570587 
	C522.247192,308.699493 523.221252,311.896606 521.972595,316.157745 
	C528.145447,310.414886 535.480042,311.877899 542.505066,311.812927 
	C548.502625,311.757446 554.501221,311.817200 561.498901,311.827148 
z" class="svg-elem-4"></path>
<path fill="#000000" opacity="1.000000" stroke="none" d="
M528.860107,340.070007 
	C528.845032,328.299164 532.090210,325.034637 543.422913,325.021973 
	C554.414795,325.009674 565.407593,324.946228 576.398193,325.069397 
	C586.675598,325.184570 590.079285,328.716858 590.198547,339.002258 
	C590.233337,341.999481 590.231506,344.997192 590.239868,347.994659 
	C590.263367,356.477997 586.519775,360.592957 577.956177,360.961853 
	C571.638062,361.234039 565.298828,360.970520 558.973389,361.125580 
	C549.647644,361.354187 539.887451,359.070679 531.183533,366.049255 
	C533.101318,356.981232 527.738892,349.114044 528.860107,340.070007 
M586.806274,336.924957 
	C586.270020,330.643951 584.103455,328.499390 577.601257,328.436310 
	C565.449646,328.318420 553.295959,328.324646 541.143677,328.386444 
	C534.827209,328.418579 532.617859,330.900269 532.300842,337.179749 
	C531.906372,344.992798 532.642151,352.602295 535.822754,360.043976 
	C538.642578,357.429413 542.473572,357.652557 546.306885,357.664185 
	C556.628174,357.695496 566.951721,357.748840 577.270508,357.568726 
	C584.515381,357.442261 586.718018,355.023590 586.791077,347.825745 
	C586.824890,344.496552 586.807678,341.166809 586.806274,336.924957 
z" class="svg-elem-5"></path>
<path fill="#000000" opacity="1.000000" stroke="none" d="
M420.457397,293.508789 
	C434.946960,295.085785 445.035583,304.678253 445.705444,317.164062 
	C446.272064,327.725037 438.119751,337.754211 426.426178,340.743347 
	C421.674438,341.957977 416.825928,341.187256 412.013000,341.172302 
	C407.052002,341.156891 403.557434,345.664856 398.626770,345.963287 
	C398.284943,345.298187 397.772217,344.757843 397.886993,344.456848 
	C400.605225,337.329071 396.351349,332.304382 393.313812,326.455872 
	C386.296143,312.944000 395.764679,296.598053 411.608124,293.891571 
	C414.368896,293.419983 417.190582,292.845428 420.457397,293.508789 
M421.156799,297.041718 
	C418.333557,297.124420 415.465790,296.915314 412.694458,297.338287 
	C397.378784,299.675842 389.458160,315.432465 397.568634,327.464294 
	C400.216766,331.392761 405.171967,334.173218 402.641815,340.765045 
	C408.722168,335.750977 415.052612,338.140839 421.051300,337.892151 
	C431.326080,337.466217 439.884460,330.756653 441.824280,321.589447 
	C444.293793,309.919037 435.859741,299.491608 421.156799,297.041718 
z" class="svg-elem-6"></path>
<path fill="#000000" opacity="1.000000" stroke="none" d="
M449.977600,344.698669 
	C458.641266,348.225067 464.495605,353.817749 465.280396,363.128204 
	C466.377716,376.146027 455.956787,386.398743 441.518494,386.019348 
	C435.748932,385.867737 430.341339,385.692139 425.277374,388.809631 
	C424.431183,389.330597 423.396240,389.472198 422.283112,388.834137 
	C420.303558,385.392365 424.635529,381.816071 422.439362,378.414368 
	C420.449066,375.331543 418.314148,372.405182 417.386475,368.742767 
	C413.765106,354.446045 426.840240,341.138824 442.793060,343.041138 
	C445.090607,343.315125 447.332520,344.055847 449.977600,344.698669 
M455.097290,351.342041 
	C450.269440,348.173340 445.080414,346.156677 439.196320,346.357971 
	C423.913147,346.880859 415.511169,361.153229 423.407715,373.564545 
	C425.566162,376.957062 427.735413,379.976624 425.711975,385.080475 
	C430.533203,382.191742 434.593719,381.495636 439.017487,382.638367 
	C440.721130,383.078461 442.680359,382.846863 444.471191,382.576813 
	C452.455017,381.372925 458.777954,377.482391 461.240295,369.585510 
	C463.373596,362.743744 461.677521,356.411621 455.097290,351.342041 
z" class="svg-elem-7"></path>
<path fill="#000000" opacity="1.000000" stroke="none" d="
M479.445801,273.303314 
	C482.458801,276.149567 483.810883,279.232300 482.896637,283.003479 
	C482.500580,284.637146 483.195831,285.908295 483.853333,287.263000 
	C485.337433,290.320740 484.969360,293.421570 482.494080,295.505524 
	C480.051025,297.562408 479.690186,299.696014 480.186340,302.520050 
	C480.430023,303.906982 480.772644,305.691559 478.966400,306.453613 
	C477.508881,307.068481 476.317657,306.091644 475.488281,305.081299 
	C471.407166,300.109680 465.962677,299.714600 460.107574,300.011536 
	C456.140167,300.212738 452.100586,300.496552 448.180664,299.338074 
	C442.938812,297.788910 439.916534,294.097473 439.648560,288.922028 
	C439.336365,282.893188 441.329651,279.702850 447.216736,277.634308 
	C449.542511,276.817139 450.563934,275.184143 451.658478,273.262482 
	C454.524719,268.230438 459.919983,265.562592 464.756958,268.198578 
	C469.395691,270.726501 474.330658,271.491486 479.445801,273.303314 
M453.935669,278.077972 
	C453.384674,280.853333 451.040527,280.216705 449.194580,280.626617 
	C444.002502,281.779541 441.397858,287.296265 443.950806,291.854828 
	C445.900726,295.336578 449.261658,295.871185 452.919403,296.068329 
	C460.379730,296.470398 468.206299,294.100739 474.218689,298.566986 
	C479.083160,294.604431 482.666962,290.331848 478.625824,284.198730 
	C478.459656,283.946503 478.954559,283.298096 479.066864,282.816864 
	C480.195679,277.979279 477.580078,274.743927 472.803253,275.613159 
	C470.377380,276.054626 468.964111,275.748962 467.208771,273.916107 
	C462.233490,268.720886 456.388031,270.369995 453.935669,278.077972 
z" class="svg-elem-8"></path>
<path fill="#000000" opacity="1.000000" stroke="none" d="
M505.826935,281.060425 
	C499.041046,284.002106 494.170959,283.255035 490.597595,278.971588 
	C487.113159,274.794769 486.906067,269.188110 490.067657,264.623230 
	C493.187836,260.118042 498.620544,258.216400 503.680603,259.858276 
	C512.631653,262.762634 513.873291,273.270538 505.826935,281.060425 
M496.462738,267.523926 
	C494.152618,268.245300 493.951813,269.857727 494.903351,271.699249 
	C495.416443,272.692230 496.565857,272.894592 497.357819,272.051453 
	C498.746765,270.572723 499.191528,268.972656 496.462738,267.523926 
z" class="svg-elem-9"></path>
<path fill="#000000" opacity="1.000000" stroke="none" d="
M394.525208,397.470551 
	C390.201202,391.363403 389.780365,386.729034 392.923523,381.952026 
	C395.942108,377.364288 400.333679,375.997650 405.526367,376.817963 
	C410.883209,377.664246 414.722015,381.533844 415.859436,387.019928 
	C416.868805,391.888306 414.718262,396.753784 410.377380,399.423065 
	C405.249542,402.576141 400.267883,402.042969 394.525208,397.470551 
M405.063599,397.704834 
	C411.067474,395.604950 413.657135,391.464325 412.025757,386.572968 
	C410.479462,381.936798 406.295380,379.435883 401.507812,380.286102 
	C397.624084,380.975830 394.172119,385.390137 394.428558,389.338776 
	C394.745270,394.214935 398.443024,397.385132 405.063599,397.704834 
z" class="svg-elem-10"></path>
<path fill="#000000" opacity="1.000000" stroke="none" d="
M601.958374,370.156311 
	C606.196106,365.569427 611.115051,364.317688 615.585999,366.401520 
	C619.601379,368.273010 622.368835,373.099091 621.916138,377.440491 
	C621.446960,381.939056 617.938538,385.966644 613.471313,386.876038 
	C609.176697,387.750214 605.496887,386.329163 602.727295,383.057617 
	C599.453247,379.190277 599.363586,374.888763 601.958374,370.156311 
M609.210266,383.256561 
	C612.790039,384.280731 615.404541,382.770508 617.238098,379.877625 
	C618.926208,377.214020 618.455505,374.448334 616.716064,371.948456 
	C614.876038,369.303986 612.153198,368.803406 609.202454,369.345459 
	C606.452942,369.850555 604.880188,371.706299 604.332825,374.358490 
	C603.527161,378.262360 604.949402,381.160858 609.210266,383.256561 
z" class="svg-elem-11"></path>
<path fill="#000000" opacity="1.000000" stroke="none" d="
M390.380280,399.473816 
	C394.271149,402.800385 395.670471,406.465851 392.883301,410.700531 
	C390.475006,414.359467 386.747009,415.449158 382.780792,413.904846 
	C378.721313,412.324280 377.135162,408.858398 377.837158,404.568542 
	C378.675537,399.445282 383.881897,397.234894 390.380280,399.473816 
M390.357574,407.893005 
	C391.306030,403.857025 389.172882,401.710297 385.567871,401.638031 
	C382.827789,401.583130 381.315979,403.813843 381.328979,406.702820 
	C381.337372,408.566620 382.335754,409.853638 383.984924,410.474854 
	C386.427032,411.394745 388.483765,410.699677 390.357574,407.893005 
z" class="svg-elem-12"></path>
<path fill="#000000" opacity="1.000000" stroke="none" d="
M624.042603,385.341217 
	C627.338074,381.433685 630.953735,380.806580 634.889221,383.349335 
	C638.057312,385.396332 639.168579,388.547180 637.848083,392.030029 
	C636.491577,395.607849 633.650818,397.400909 629.654541,397.259094 
	C625.340515,397.105988 620.318359,390.937225 624.042603,385.341217 
M626.692810,388.154968 
	C625.864197,390.834351 626.816040,392.725647 629.440796,393.498962 
	C631.566223,394.125153 633.355957,393.352112 634.243408,391.198822 
	C635.078003,389.173645 634.863953,387.194000 632.876099,386.022064 
	C630.587219,384.672607 628.480164,385.085510 626.692810,388.154968 
z" class="svg-elem-13"></path>
<path fill="#000000" opacity="1.000000" stroke="none" d="
M541.280212,298.523376 
	C541.181519,300.229370 541.572937,301.703308 539.843140,302.386322 
	C537.834106,302.505463 537.618103,299.666840 534.965759,299.854645 
	C529.603333,300.234283 526.424500,297.483521 525.955627,293.357513 
	C525.556946,289.849213 527.311890,287.898499 532.980164,285.920258 
	C530.207642,284.989716 526.908325,287.438629 525.204651,284.091644 
	C528.624451,281.379883 573.936768,281.094666 579.564758,283.858765 
	C574.437866,289.156158 579.349182,296.609314 575.843933,302.450287 
	C572.886719,301.472565 573.847595,299.315796 573.710083,297.678955 
	C573.543396,295.695343 573.801514,293.674683 573.615967,291.694397 
	C573.407410,289.468567 574.788452,285.767365 570.852661,286.062012 
	C567.683716,286.299286 569.525269,289.524597 569.313721,291.434479 
	C568.922180,294.970032 570.062073,298.655396 568.211609,302.747284 
	C563.737305,299.968842 567.028320,295.451019 565.249695,292.423889 
	C563.277588,292.055298 562.923828,294.659485 561.186707,294.723480 
	C560.432922,294.750580 559.903259,294.390625 559.701599,293.680450 
	C559.247375,292.080933 558.539246,290.636719 556.613708,291.676788 
	C554.969727,292.564819 555.097900,294.266937 555.975342,295.609528 
	C557.213074,297.503387 558.732178,299.213379 560.278381,301.190521 
	C557.759033,303.517456 556.193970,301.750214 554.828796,300.208313 
	C552.285095,297.335449 550.531372,294.099915 552.621155,290.243408 
	C553.943176,287.803772 556.215088,286.759186 558.965515,287.506104 
	C561.137451,288.095947 563.329773,289.623779 565.365723,285.795776 
	C559.936768,285.795776 554.953857,285.555542 550.012756,285.905548 
	C547.816284,286.061127 548.519531,288.497650 548.371582,290.062592 
	C547.976929,294.236206 549.189087,298.534943 547.687683,302.886383 
	C544.797852,302.051636 544.930115,299.936493 544.867798,298.033203 
	C544.764343,294.874634 544.824158,291.710938 544.736755,288.551575 
	C544.707764,287.502319 544.255249,286.530945 542.999146,286.548126 
	C541.733948,286.565460 541.351562,287.564697 541.331238,288.608551 
	C541.269714,291.768829 541.288452,294.930634 541.280212,298.523376 
z" class="svg-elem-14"></path>
<path fill="#000000" opacity="1.000000" stroke="none" d="
M576.833740,346.570465 
	C575.432495,349.466400 573.780396,351.648926 570.558594,350.789398 
	C565.949890,349.559998 566.317200,345.419739 565.762451,341.878906 
	C566.072266,339.904663 568.616455,341.375305 569.263184,339.426666 
	C559.652039,338.940430 565.570618,347.869415 562.027832,351.326965 
	C558.974854,347.714539 562.226868,342.969055 559.422852,339.460052 
	C556.460510,340.654907 557.362915,343.985443 555.609680,345.188751 
	C555.566467,347.722595 558.994629,347.932251 558.144714,351.189148 
	C553.817017,349.526794 551.083679,346.883942 549.970154,343.008179 
	C550.942810,340.731171 552.861938,342.735657 553.646545,341.259735 
	C553.562256,340.941071 553.563843,340.438019 553.389893,340.367371 
	C551.368347,339.546844 549.402588,339.461609 548.431824,341.817932 
	C548.014099,342.832031 548.303955,344.120453 548.168274,345.271973 
	C547.964722,346.999390 548.674622,349.013702 546.435608,350.455139 
	C544.775574,348.077393 543.428955,345.029907 539.392822,346.851379 
	C538.390625,347.303680 536.184692,345.452209 537.356628,343.866730 
	C539.517944,340.942871 537.476013,339.785706 535.455750,338.785095 
	C536.595825,335.844543 538.728760,336.707397 540.350159,336.688110 
	C549.009583,336.585175 557.670898,336.636353 566.331360,336.604858 
	C568.311462,336.597687 570.007935,336.695923 570.957458,334.008453 
	C572.476807,329.707947 576.221436,329.340363 579.351074,332.839233 
	C580.668213,334.311737 581.811890,335.939423 583.332642,337.876434 
	C579.938843,341.417999 582.456543,346.507721 580.589233,351.106354 
	C575.729187,348.419312 581.884338,341.170288 574.893738,338.940338 
	C575.596497,341.975800 577.787170,343.721222 576.833740,346.570465 
M570.212219,343.629608 
	C568.657043,345.298157 569.172058,346.614105 571.050110,347.419525 
	C572.082642,347.862335 573.056458,347.230530 573.353882,346.188538 
	C573.963074,344.053772 573.057800,343.075562 570.212219,343.629608 
z" class="svg-elem-15"></path>
<path fill="#000000" opacity="1.000000" stroke="none" d="
M407.873779,305.562347 
	C411.412598,305.558289 413.372131,307.691071 415.412537,309.641968 
	C419.245941,313.307190 422.724640,312.747864 424.781799,308.100128 
	C426.333282,304.594879 429.815796,303.585999 432.346069,306.428558 
	C434.891449,309.288147 438.820679,312.010345 435.559662,317.063995 
	C434.626831,318.509674 435.281830,320.965820 435.164307,322.955963 
	C435.060730,324.710297 435.474854,326.686279 433.190826,327.847351 
	C430.686096,325.546478 432.148743,322.562195 431.731842,319.975952 
	C431.502686,318.554291 432.251190,316.787109 430.744507,315.820923 
	C428.956451,314.674225 427.998077,316.337921 427.095032,317.416992 
	C425.875854,318.873932 422.428986,317.680603 422.663330,321.044586 
	C428.485992,320.222900 428.485992,320.222900 429.644379,328.667572 
	C419.561798,325.586029 417.332611,322.108948 421.417206,315.646606 
	C419.463898,314.789734 418.031250,315.115662 416.841125,317.014221 
	C415.802399,318.671265 415.818085,319.938629 417.151062,321.454803 
	C419.256866,323.850006 417.299744,326.241821 416.560181,328.428741 
	C416.106293,329.771027 414.232880,329.394440 412.953003,328.985107 
	C410.681641,328.258789 408.681183,327.303284 408.137085,324.525726 
	C407.339111,320.452209 407.948395,318.059845 410.974152,315.290100 
	C400.933350,314.145721 407.846344,323.520264 404.162354,326.228363 
	C403.780487,326.136780 403.250549,326.134949 403.200836,325.979553 
	C401.675568,321.211334 401.312592,316.234406 401.058594,311.304688 
	C400.845337,307.165161 403.509064,305.406799 407.873779,305.562347 
M409.019623,311.807526 
	C409.930237,311.646973 411.060059,312.162079 411.648315,310.976044 
	C408.210754,307.395386 407.246796,307.345490 404.797455,310.625153 
	C405.600037,312.131531 407.071747,311.639221 409.019623,311.807526 
z" class="svg-elem-16"></path>
<path fill="#000000" opacity="1.000000" stroke="none" d="
M453.002563,365.523254 
	C450.557892,369.852570 447.091858,372.765076 443.904572,375.925385 
	C442.416321,377.401062 440.861481,377.883911 439.077850,376.371124 
	C434.997833,372.910767 430.995575,369.370117 428.689545,364.395264 
	C427.174774,361.127380 427.144897,357.853699 429.708221,355.075012 
	C432.108063,352.473511 435.173065,352.093994 438.435608,353.228699 
	C439.843597,353.718384 441.162048,354.496002 442.728516,353.732635 
	C446.188019,352.046722 449.580658,351.984100 452.373779,354.912109 
	C455.333862,358.015137 454.660095,361.610168 453.002563,365.523254 
M440.124298,358.387878 
	C438.026306,356.432831 435.680237,355.350922 432.960480,356.975555 
	C431.142212,358.061646 430.894562,360.036591 431.415344,361.839020 
	C432.825623,366.720032 436.588745,369.773468 440.417328,372.696075 
	C441.358429,373.414459 442.328125,372.880676 443.089874,372.162994 
	C445.981354,369.438538 448.988556,366.789093 450.471161,362.949066 
	C451.273102,360.871887 451.820740,358.706146 449.630402,357.098419 
	C447.639648,355.637238 445.623901,355.832642 443.740265,357.441376 
	C442.882782,358.173676 442.142883,359.205078 440.124298,358.387878 
z" class="svg-elem-17"></path>
</svg>